/* XPM */
static char *result[] = {
/* columns rows colors chars-per-pixel */
"64 64 9 1 ",
"  c #060608",
". c #2F2E2F",
"X c #3E2F5A",
"o c #564064",
"O c #B4202A",
"+ c #FFFC40",
"@ c #85578E",
"# c #BE9BB0",
"$ c white",
/* pixels */
"................................................................",
"................................................................",
"..@@####################@@..@@############################@@..@@",
"..@@####################@@..@@############################@@..@@",
"..##@@@@@@@@@@@@@@@@OOOOOOOOOOOOOOOOOOOOOOOO@@@@oo@@@@@@@@##..##",
"..##@@@@@@@@@@@@@@@@OOOOOOOOOOOOOOOOOOOOOOOO@@@@oo@@@@@@@@##..##",
"..@@@@oooooooo@@ooooOOOOOOOOOOOOOOOOOOOOOOOO@@oooooooooooo@@..@@",
"..@@@@oooooooo@@ooooOOOOOOOOOOOOOOOOOOOOOOOO@@oooooooooooo@@..@@",
"..@@ooooooooooooOOOO$$$$            ++++++++OOOOooooooXXoooo..oo",
"..@@ooooooooooooOOOO$$$$            ++++++++OOOOooooooXXoooo..oo",
"..oo@@ooooXXXXXXOOOO$$$$            ++++++++OOOOXXXXXXXXXXXX..XX",
"..oo@@ooooXXXXXXOOOO$$$$            ++++++++OOOOXXXXXXXXXXXX..XX",
"..XXooooXXXXOOOO$$$$                        ++++OOOOXXXXXX......",
"..XXooooXXXXOOOO$$$$                        ++++OOOOXXXXXX......",
"............OOOO$$$$                        ++++OOOO............",
"............OOOO$$$$                        ++++OOOO............",
"..oo@@@@@@@@OOOO$$$$            $$$$        ++++OOOO@@@@@@@@@@@@",
"..oo@@@@@@@@OOOO$$$$            $$$$        ++++OOOO@@@@@@@@@@@@",
"..@@@@@@@@@@OOOO$$$$            $$$$        ++++OOOO@@@@@@oooo@@",
"..@@@@@@@@@@OOOO$$$$            $$$$        ++++OOOO@@@@@@oooo@@",
"..@@@@ooooooOOOO$$$$            $$$$        ++++OOOO@@oooooooooo",
"..@@@@ooooooOOOO$$$$            $$$$        ++++OOOO@@oooooooooo",
"..@@oo@@ooooOOOO$$$$            $$$$        ++++OOOOooooooXXXXoo",
"..@@oo@@ooooOOOO$$$$            $$$$        ++++OOOOooooooXXXXoo",
"..@@ooooooooOOOO$$$$            $$$$        ++++OOOOooooXXXXoooo",
"..@@ooooooooOOOO$$$$            $$$$        ++++OOOOooooXXXXoooo",
"..oo@@ooooooOOOO$$$$            $$$$        ++++OOOOXXXXXXXXXXXX",
"..oo@@ooooooOOOO$$$$            $$$$        ++++OOOOXXXXXXXXXXXX",
"..XXooooXXXXOOOO$$$$            $$$$        ++++OOOOXXXXXXXXXXXX",
"..XXooooXXXXOOOO$$$$            $$$$        ++++OOOOXXXXXXXXXXXX",
"............OOOO$$$$            $$$$        ++++OOOO............",
"............OOOO$$$$            $$$$        ++++OOOO............",
"..oo@@@@@@@@OOOO$$$$            $$$$            OOOO....@@@@@@@@",
"..oo@@@@@@@@OOOO$$$$            $$$$            OOOO....@@@@@@@@",
"..@@@@@@@@@@OOOO$$$$            $$$$            OOOO..@@@@@@oo@@",
"..@@@@@@@@@@OOOO$$$$            $$$$            OOOO..@@@@@@oo@@",
"..@@@@@@oo@@OOOO$$$$            $$$$            OOOO..@@@@oooooo",
"..@@@@@@oo@@OOOO$$$$            $$$$            OOOO..@@@@oooooo",
"..@@@@ooooXXOOOO$$$$            $$$$            OOOO..@@ooooXXoo",
"..@@@@ooooXXOOOO$$$$            $$$$            OOOO..@@ooooXXoo",
"..@@oo@@ooooOOOO$$$$            $$$$            OOOO..XXooooooXX",
"..@@oo@@ooooOOOO$$$$            $$$$            OOOO..XXooooooXX",
"..@@ooooooooOOOO$$$$            $$$$            OOOO..XXXXoooooo",
"..@@ooooooooOOOO$$$$            $$$$            OOOO..XXXXoooooo",
"..oo@@ooooXXOOOO$$$$            $$$$            OOOO..XXXXXXooXX",
"..oo@@ooooXXOOOO$$$$            $$$$            OOOO..XXXXXXooXX",
"..XXooXXXXXXOOOO$$$$            $$$$            OOOO....XXXXXXXX",
"..XXooXXXXXXOOOO$$$$            $$$$            OOOO....XXXXXXXX",
"................OOOO$$$$                        OOOO............",
"................OOOO$$$$                        OOOO............",
"..oo@@@@@@@@@@@@OOOO$$$$                        OOOO@@@@@@@@@@@@",
"..oo@@@@@@@@@@@@OOOO$$$$                        OOOO@@@@@@@@@@@@",
"..@@@@@@oo@@@@@@OOOO$$$$                    OOOO@@@@@@@@@@@@oo@@",
"..@@@@@@oo@@@@@@OOOO$$$$                    OOOO@@@@@@@@@@@@oo@@",
"..@@@@@@@@oo@@@@OOOO$$$$                    OOOOoooo@@oooooooooo",
"..@@@@@@@@oo@@@@OOOO$$$$                    OOOOoooo@@oooooooooo",
"..@@@@oooo@@XX@@XXooOOOOOOOOOOOOOOOOOOOOOOOO@@XXooooooooooooXXoo",
"..@@@@oooo@@XX@@XXooOOOOOOOOOOOOOOOOOOOOOOOO@@XXooooooooooooXXoo",
"..@@ooooooooXXXXXXXXOOOOOOOOOOOOOOOOOOOOOOOOXXXXXXooooooooXXXXoo",
"..@@ooooooooXXXXXXXXOOOOOOOOOOOOOOOOOOOOOOOOXXXXXXooooooooXXXXoo",
"..oo@@ooooXXXXXXXXXXXXXXXXXXXXXXooXXXXXXXX..XXXXXXXXooXXXXXXXXXX",
"..oo@@ooooXXXXXXXXXXXXXXXXXXXXXXooXXXXXXXX..XXXXXXXXooXXXXXXXXXX",
"..XXooXXXXXXXXXXXXXXXXXXXXXXXXXXXXXXXXXX......XXXXXXXXXXXXXXXXXX",
"..XXooXXXXXXXXXXXXXXXXXXXXXXXXXXXXXXXXXX......XXXXXXXXXXXXXXXXXX"
};
