/* XPM */
static char *result[] = {
/* columns rows colors chars-per-pixel */
"64 64 9 1 ",
"  c #060608",
". c #2F2E2F",
"X c #3E2F5A",
"o c #564064",
"O c #B4202A",
"+ c #FFFC40",
"@ c #85578E",
"# c #BE9BB0",
"$ c white",
/* pixels */
"................................................................",
"................................................................",
"..@@####################@@..@@############################@@..@@",
"..@@####################@@..@@############################@@..@@",
"..##@@@@@@@@@@@@@@@@@@@@##..##@@OOOOOOOOoo@@@@@@oo@@@@@@@@##..##",
"..##@@@@@@@@@@@@@@@@@@@@##..##@@OOOOOOOOoo@@@@@@oo@@@@@@@@##..##",
"..@@@@oooooooo@@oooooo@@@@..@@@@OOOOOOOOoooo@@oooooooooooo@@..@@",
"..@@@@oooooooo@@oooooo@@@@..@@@@OOOOOOOOoooo@@oooooooooooo@@..@@",
"..@@ooooooooooooooooXXXXOOOOOOOO$$$$++++OOOOooooooooooXXoooo..oo",
"..@@ooooooooooooooooXXXXOOOOOOOO$$$$++++OOOOooooooooooXXoooo..oo",
"..oo@@ooooXXXXXXXXXXXXXXOOOOOOOO$$$$++++OOOOXXXXXXXXXXXXXXXX..XX",
"..oo@@ooooXXXXXXXXXXXXXXOOOOOOOO$$$$++++OOOOXXXXXXXXXXXXXXXX..XX",
"..XXooooXXXXXXXXOOOOOOOO$$$$        ++++OOOOXXXXXXXXXXXXXX......",
"..XXooooXXXXXXXXOOOOOOOO$$$$        ++++OOOOXXXXXXXXXXXXXX......",
"................OOOOOOOO$$$$        ++++OOOO....................",
"................OOOOOOOO$$$$        ++++OOOO....................",
"..oo@@@@@@@@OOOO$$$$                ++++OOOO....@@@@@@@@@@@@@@@@",
"..oo@@@@@@@@OOOO$$$$                ++++OOOO....@@@@@@@@@@@@@@@@",
"..@@@@@@@@@@OOOO$$$$                ++++OOOO..@@@@@@@@@@@@oooo@@",
"..@@@@@@@@@@OOOO$$$$                ++++OOOO..@@@@@@@@@@@@oooo@@",
"..@@@@oooooo@@ooOOOOOOOO$$$$        ++++OOOO..@@@@oo@@oooooooooo",
"..@@@@oooooo@@ooOOOOOOOO$$$$        ++++OOOO..@@@@oo@@oooooooooo",
"..@@oo@@ooooooooOOOOOOOO$$$$        ++++OOOO..@@XXooooooooXXXXoo",
"..@@oo@@ooooooooOOOOOOOO$$$$        ++++OOOO..@@XXooooooooXXXXoo",
"..@@ooooooooooXXooooOOOO$$$$        ++++OOOO..XXXXXXooooXXXXoooo",
"..@@ooooooooooXXooooOOOO$$$$        ++++OOOO..XXXXXXooooXXXXoooo",
"..oo@@ooooooXXXXXXXXOOOO$$$$        ++++OOOO..XXXXXXXXXXXXXXXXXX",
"..oo@@ooooooXXXXXXXXOOOO$$$$        ++++OOOO..XXXXXXXXXXXXXXXXXX",
"..XXooooXXXXXXXXXXXXOOOO$$$$        ++++OOOO....XXXXXXXXXXXXXXXX",
"..XXooooXXXXXXXXXXXXOOOO$$$$        ++++OOOO....XXXXXXXXXXXXXXXX",
"....................OOOO$$$$        ++++OOOO....................",
"....................OOOO$$$$        ++++OOOO....................",
"..oo@@@@@@@@@@@@@@@@OOOO$$$$            OOOO@@@@@@......@@@@@@@@",
"..oo@@@@@@@@@@@@@@@@OOOO$$$$            OOOO@@@@@@......@@@@@@@@",
"..@@@@@@@@@@@@oo@@@@OOOO$$$$            OOOO@@@@@@@@..@@@@@@oo@@",
"..@@@@@@@@@@@@oo@@@@OOOO$$$$            OOOO@@@@@@@@..@@@@@@oo@@",
"..@@@@@@oo@@oooooo@@OOOO$$$$            OOOOoooo@@@@..@@@@oooooo",
"..@@@@@@oo@@oooooo@@OOOO$$$$            OOOOoooo@@@@..@@@@oooooo",
"..@@@@ooooXXooooooooOOOO$$$$            OOOOoooooo@@..@@ooooXXoo",
"..@@@@ooooXXooooooooOOOO$$$$            OOOOoooooo@@..@@ooooXXoo",
"..@@oo@@ooooXXooooooOOOO$$$$            OOOOXXooooXX..XXooooooXX",
"..@@oo@@ooooXXooooooOOOO$$$$            OOOOXXooooXX..XXooooooXX",
"..@@ooooooooXXXXooXXOOOO$$$$            OOOOooooXXXX..XXXXoooooo",
"..@@ooooooooXXXXooXXOOOO$$$$            OOOOooooXXXX..XXXXoooooo",
"..oo@@ooooXXXXXXXXXXOOOO$$$$            OOOOooXXXXXX..XXXXXXooXX",
"..oo@@ooooXXXXXXXXXXOOOO$$$$            OOOOooXXXXXX..XXXXXXooXX",
"..XXooXXXXXXXXXXXXXXOOOO$$$$            OOOOXXXXXX......XXXXXXXX",
"..XXooXXXXXXXXXXXXXXOOOO$$$$            OOOOXXXXXX......XXXXXXXX",
"....................OOOO$$$$            OOOO....................",
"....................OOOO$$$$            OOOO....................",
"..oo@@@@@@@@@@@@@@@@OOOO$$$$            OOOO..@@@@@@@@@@@@@@@@@@",
"..oo@@@@@@@@@@@@@@@@OOOO$$$$            OOOO..@@@@@@@@@@@@@@@@@@",
"..@@@@@@oo@@@@@@@@@@OOOO$$$$            OOOO@@@@@@@@@@@@@@@@oo@@",
"..@@@@@@oo@@@@@@@@@@OOOO$$$$            OOOO@@@@@@@@@@@@@@@@oo@@",
"..@@@@@@@@oo@@@@@@ooOOOO$$$$            OOOO@@@@oooo@@oooooooooo",
"..@@@@@@@@oo@@@@@@ooOOOO$$$$            OOOO@@@@oooo@@oooooooooo",
"..@@@@oooo@@XX@@XXooooooOOOOOOOOOOOOOOOO@@..@@XXooooooooooooXXoo",
"..@@@@oooo@@XX@@XXooooooOOOOOOOOOOOOOOOO@@..@@XXooooooooooooXXoo",
"..@@ooooooooXXXXXXXXooXXOOOOOOOOOOOOOOOOXX..XXXXXXooooooooXXXXoo",
"..@@ooooooooXXXXXXXXooXXOOOOOOOOOOOOOOOOXX..XXXXXXooooooooXXXXoo",
"..oo@@ooooXXXXXXXXXXXXXXXXXXXXXXooXXXXXXXX..XXXXXXXXooXXXXXXXXXX",
"..oo@@ooooXXXXXXXXXXXXXXXXXXXXXXooXXXXXXXX..XXXXXXXXooXXXXXXXXXX",
"..XXooXXXXXXXXXXXXXXXXXXXXXXXXXXXXXXXXXX......XXXXXXXXXXXXXXXXXX",
"..XXooXXXXXXXXXXXXXXXXXXXXXXXXXXXXXXXXXX......XXXXXXXXXXXXXXXXXX"
};
