/* XPM */
static char *result[] = {
/* columns rows colors chars-per-pixel */
"64 64 9 1 ",
"  c #2F2E2F",
". c #85578E",
"X c #BE9BB0",
"o c #B4202A",
"O c #564064",
"+ c white",
"@ c #060608",
"# c #FFFC40",
"$ c #3E2F5A",
/* pixels */
"                                                                ",
"                                                                ",
"  ..XXXXXXXXXXXXXXXXXXXX..  ..XXXXXXXXXXXXXXXXXXXXXXXXXXXX..  ..",
"  ..XXXXXXXXXXXXXXXXXXXX..  ..XXXXXXXXXXXXXXXXXXXXXXXXXXXX..  ..",
"  XX................ooooooooooooooooooooOO......OO........XX  XX",
"  XX................ooooooooooooooooooooOO......OO........XX  XX",
"  ....OOOOOOOO..OOOOooooooooooooooooooooOOOO..OOOOOOOOOOOO..  ..",
"  ....OOOOOOOO..OOOOooooooooooooooooooooOOOO..OOOOOOOOOOOO..  ..",
"  ..OOOOOOOOOOOOoooo++++@@@@@@@@@@@@####ooooOOOOOOOOOO$$OOOO  OO",
"  ..OOOOOOOOOOOOoooo++++@@@@@@@@@@@@####ooooOOOOOOOOOO$$OOOO  OO",
"  OO..OOOO$$$$$$oooo++++@@@@@@@@@@@@####oooo$$$$$$$$$$$$$$$$  $$",
"  OO..OOOO$$$$$$oooo++++@@@@@@@@@@@@####oooo$$$$$$$$$$$$$$$$  $$",
"  $$OOOO$$$$oooo++++@@@@@@@@@@@@@@@@@@@@####oooo$$$$$$$$$$      ",
"  $$OOOO$$$$oooo++++@@@@@@@@@@@@@@@@@@@@####oooo$$$$$$$$$$      ",
"            oooo++++@@@@@@@@@@@@@@@@@@@@####oooo                ",
"            oooo++++@@@@@@@@@@@@@@@@@@@@####oooo                ",
"  OO........oooo++++@@@@@@@@++++@@@@@@@@####oooo................",
"  OO........oooo++++@@@@@@@@++++@@@@@@@@####oooo................",
"  ..........oooo++++@@@@@@@@++++@@@@@@@@####oooo..........OOOO..",
"  ..........oooo++++@@@@@@@@++++@@@@@@@@####oooo..........OOOO..",
"  ....OOOOOOoooo++++@@@@@@@@++++@@@@@@@@####oooo..OO..OOOOOOOOOO",
"  ....OOOOOOoooo++++@@@@@@@@++++@@@@@@@@####oooo..OO..OOOOOOOOOO",
"  ..OO..OOOOoooo++++@@@@@@@@++++@@@@@@@@####oooo$$OOOOOOOO$$$$OO",
"  ..OO..OOOOoooo++++@@@@@@@@++++@@@@@@@@####oooo$$OOOOOOOO$$$$OO",
"  ..OOOOOOOOoooo++++@@@@@@@@++++@@@@@@@@####oooo$$$$OOOO$$$$OOOO",
"  ..OOOOOOOOoooo++++@@@@@@@@++++@@@@@@@@####oooo$$$$OOOO$$$$OOOO",
"  OO..OOOOOOoooo++++@@@@@@@@++++@@@@@@@@####oooo$$$$$$$$$$$$$$$$",
"  OO..OOOOOOoooo++++@@@@@@@@++++@@@@@@@@####oooo$$$$$$$$$$$$$$$$",
"  $$OOOO$$$$$$$$oooooooooooo++++@@@@@@@@####oooo$$$$$$$$$$$$$$$$",
"  $$OOOO$$$$$$$$oooooooooooo++++@@@@@@@@####oooo$$$$$$$$$$$$$$$$",
"                oooooooooooo++++@@@@@@@@####oooo                ",
"                oooooooooooo++++@@@@@@@@####oooo                ",
"  OO................oooo++++@@@@@@@@@@@@oooo......      ........",
"  OO................oooo++++@@@@@@@@@@@@oooo......      ........",
"  ............OO....oooo++++@@@@@@@@@@@@oooo........  ......OO..",
"  ............OO....oooo++++@@@@@@@@@@@@oooo........  ......OO..",
"  ......OO..OOOOoooo++++@@@@@@@@@@@@ooooOO..OOOO....  ....OOOOOO",
"  ......OO..OOOOoooo++++@@@@@@@@@@@@ooooOO..OOOO....  ....OOOOOO",
"  ....OOOO$$OOOOoooo++++@@@@@@@@@@@@ooooOO$$OOOOOO..  ..OOOO$$OO",
"  ....OOOO$$OOOOoooo++++@@@@@@@@@@@@ooooOO$$OOOOOO..  ..OOOO$$OO",
"  ..OO..OOOO$$OOoooo++++@@@@@@@@@@@@ooooOOOO$$OOOO$$  $$OOOOOO$$",
"  ..OO..OOOO$$OOoooo++++@@@@@@@@@@@@ooooOOOO$$OOOO$$  $$OOOOOO$$",
"  ..OOOOOOOO$$$$oooo++++@@@@@@@@@@@@oooo$$OOOOOO$$$$  $$$$OOOOOO",
"  ..OOOOOOOO$$$$oooo++++@@@@@@@@@@@@oooo$$OOOOOO$$$$  $$$$OOOOOO",
"  OO..OOOO$$oooo++++@@@@@@@@@@@@ooooooooooooOO$$$$$$  $$$$$$OO$$",
"  OO..OOOO$$oooo++++@@@@@@@@@@@@ooooooooooooOO$$$$$$  $$$$$$OO$$",
"  $$OO$$$$$$oooo++++@@@@@@@@@@@@oooooooooooo$$$$$$      $$$$$$$$",
"  $$OO$$$$$$oooo++++@@@@@@@@@@@@oooooooooooo$$$$$$      $$$$$$$$",
"            oooo++++@@@@@@@@@@@@@@@@@@@@@@@@oooo                ",
"            oooo++++@@@@@@@@@@@@@@@@@@@@@@@@oooo                ",
"  OO........oooo++++@@@@@@@@@@@@@@@@@@@@@@@@oooo................",
"  OO........oooo++++@@@@@@@@@@@@@@@@@@@@@@@@oooo................",
"  ......OO..oooo++++@@@@@@@@@@@@@@@@@@@@@@@@oooo............OO..",
"  ......OO..oooo++++@@@@@@@@@@@@@@@@@@@@@@@@oooo............OO..",
"  ........OOoooo++++@@@@@@@@@@@@@@@@@@@@@@@@ooooOOOO..OOOOOOOOOO",
"  ........OOoooo++++@@@@@@@@@@@@@@@@@@@@@@@@ooooOOOO..OOOOOOOOOO",
"  ....OOOO..$$..oooooooooooooooooooooooooooo..$$OOOOOOOOOOOO$$OO",
"  ....OOOO..$$..oooooooooooooooooooooooooooo..$$OOOOOOOOOOOO$$OO",
"  ..OOOOOOOO$$$$oooooooooooooooooooooooooooo$$$$$$OOOOOOOO$$$$OO",
"  ..OOOOOOOO$$$$oooooooooooooooooooooooooooo$$$$$$OOOOOOOO$$$$OO",
"  OO..OOOO$$$$$$$$$$$$$$$$$$$$$$OO$$$$$$$$  $$$$$$$$OO$$$$$$$$$$",
"  OO..OOOO$$$$$$$$$$$$$$$$$$$$$$OO$$$$$$$$  $$$$$$$$OO$$$$$$$$$$",
"  $$OO$$$$$$$$$$$$$$$$$$$$$$$$$$$$$$$$$$      $$$$$$$$$$$$$$$$$$",
"  $$OO$$$$$$$$$$$$$$$$$$$$$$$$$$$$$$$$$$      $$$$$$$$$$$$$$$$$$"
};
