/* XPM */
static char *result[] = {
/* columns rows colors chars-per-pixel */
"64 64 9 1 ",
"  c #2F2E2F",
". c #85578E",
"X c #BE9BB0",
"o c #B4202A",
"O c #564064",
"+ c white",
"@ c #060608",
"# c #FFFC40",
"$ c #3E2F5A",
/* pixels */
"                                                                ",
"                                                                ",
"  ..XXXXXXXXXXXXXXXXXXXX..  ..XXXXXXXXXXXXXXXXXXXXXXXXXXXX..  ..",
"  ..XXXXXXXXXXXXXXXXXXXX..  ..XXXXXXXXXXXXXXXXXXXXXXXXXXXX..  ..",
"  XX................ooooooooooooooooooooOO......OO........XX  XX",
"  XX................ooooooooooooooooooooOO......OO........XX  XX",
"  ....OOOOOOOO..OOOOooooooooooooooooooooOOOO..OOOOOOOOOOOO..  ..",
"  ....OOOOOOOO..OOOOooooooooooooooooooooOOOO..OOOOOOOOOOOO..  ..",
"  ..OOOOOOOOOOOOoooo++++@@@@@@@@@@@@####ooooOOOOOOOOOO$$OOOO  OO",
"  ..OOOOOOOOOOOOoooo++++@@@@@@@@@@@@####ooooOOOOOOOOOO$$OOOO  OO",
"  OO..OOOO$$$$$$oooo++++@@@@@@@@@@@@####oooo$$$$$$$$$$$$$$$$  $$",
"  OO..OOOO$$$$$$oooo++++@@@@@@@@@@@@####oooo$$$$$$$$$$$$$$$$  $$",
"  $$OOOO$$$$oooo++++@@@@@@@@@@@@@@@@@@@@####oooo$$$$$$$$$$      ",
"  $$OOOO$$$$oooo++++@@@@@@@@@@@@@@@@@@@@####oooo$$$$$$$$$$      ",
"            oooo++++@@@@@@@@@@@@@@@@@@@@####oooo                ",
"            oooo++++@@@@@@@@@@@@@@@@@@@@####oooo                ",
"  OO........oooo++++@@@@@@@@++++@@@@@@@@####oooo................",
"  OO........oooo++++@@@@@@@@++++@@@@@@@@####oooo................",
"  ..........oooo++++@@@@@@@@++++@@@@@@@@####oooo..........OOOO..",
"  ..........oooo++++@@@@@@@@++++@@@@@@@@####oooo..........OOOO..",
"  ....OOOOOOoooo++++@@@@@@@@++++@@@@@@@@####oooo..OO..OOOOOOOOOO",
"  ....OOOOOOoooo++++@@@@@@@@++++@@@@@@@@####oooo..OO..OOOOOOOOOO",
"  ..OO..OOOOoooo++++@@@@@@@@++++@@@@@@@@####oooo$$OOOOOOOO$$$$OO",
"  ..OO..OOOOoooo++++@@@@@@@@++++@@@@@@@@####oooo$$OOOOOOOO$$$$OO",
"  ..OOOOOOOOOO$$oooooooooooo++++@@@@@@@@####oooo$$$$OOOO$$$$OOOO",
"  ..OOOOOOOOOO$$oooooooooooo++++@@@@@@@@####oooo$$$$OOOO$$$$OOOO",
"  OO..OOOOOO$$$$oooooooooooo++++@@@@@@@@####oooo$$$$$$$$$$$$$$$$",
"  OO..OOOOOO$$$$oooooooooooo++++@@@@@@@@####oooo$$$$$$$$$$$$$$$$",
"  $$OOOO$$$$$$$$$$$$oooo++++@@@@@@@@@@@@oooo    $$$$$$$$$$$$$$$$",
"  $$OOOO$$$$$$$$$$$$oooo++++@@@@@@@@@@@@oooo    $$$$$$$$$$$$$$$$",
"                    oooo++++@@@@@@@@@@@@oooo                    ",
"                    oooo++++@@@@@@@@@@@@oooo                    ",
"  OO............oooooooo++++@@@@@@@@@@@@@@@@oooo..      ........",
"  OO............oooooooo++++@@@@@@@@@@@@@@@@oooo..      ........",
"  ............OOoooooooo++++@@@@@@@@@@@@@@@@oooo....  ......OO..",
"  ............OOoooooooo++++@@@@@@@@@@@@@@@@oooo....  ......OO..",
"  ......OO..oooo++++@@@@@@@@++++@@@@@@@@@@@@oooo....  ....OOOOOO",
"  ......OO..oooo++++@@@@@@@@++++@@@@@@@@@@@@oooo....  ....OOOOOO",
"  ....OOOO$$oooo++++@@@@@@@@++++@@@@@@@@@@@@ooooOO..  ..OOOO$$OO",
"  ....OOOO$$oooo++++@@@@@@@@++++@@@@@@@@@@@@ooooOO..  ..OOOO$$OO",
"  ..OO..OOOOoooo++++@@@@@@@@++++@@@@@@@@@@@@ooooOO$$  $$OOOOOO$$",
"  ..OO..OOOOoooo++++@@@@@@@@++++@@@@@@@@@@@@ooooOO$$  $$OOOOOO$$",
"  ..OOOOOOOOoooo++++@@@@@@@@++++@@@@@@@@@@@@oooo$$$$  $$$$OOOOOO",
"  ..OOOOOOOOoooo++++@@@@@@@@++++@@@@@@@@@@@@oooo$$$$  $$$$OOOOOO",
"  OO..OOOO$$oooo++++@@@@@@@@++++@@@@@@@@@@@@oooo$$$$  $$$$$$OO$$",
"  OO..OOOO$$oooo++++@@@@@@@@++++@@@@@@@@@@@@oooo$$$$  $$$$$$OO$$",
"  $$OO$$$$$$oooo++++@@@@@@@@++++@@@@@@@@@@@@oooo$$      $$$$$$$$",
"  $$OO$$$$$$oooo++++@@@@@@@@++++@@@@@@@@@@@@oooo$$      $$$$$$$$",
"            oooo++++@@@@@@@@@@@@@@@@@@@@@@@@oooo                ",
"            oooo++++@@@@@@@@@@@@@@@@@@@@@@@@oooo                ",
"  OO........oooo++++@@@@@@@@@@@@@@@@@@@@@@@@oooo................",
"  OO........oooo++++@@@@@@@@@@@@@@@@@@@@@@@@oooo................",
"  ......OO......oooo++++@@@@@@@@@@@@@@@@oooo................OO..",
"  ......OO......oooo++++@@@@@@@@@@@@@@@@oooo................OO..",
"  ........OO....oooo++++@@@@@@@@@@@@@@@@oooo....OOOO..OOOOOOOOOO",
"  ........OO....oooo++++@@@@@@@@@@@@@@@@oooo....OOOO..OOOOOOOOOO",
"  ....OOOO..$$..$$OOoooooooooooooooooooo..  ..$$OOOOOOOOOOOO$$OO",
"  ....OOOO..$$..$$OOoooooooooooooooooooo..  ..$$OOOOOOOOOOOO$$OO",
"  ..OOOOOOOO$$$$$$$$oooooooooooooooooooo$$  $$$$$$OOOOOOOO$$$$OO",
"  ..OOOOOOOO$$$$$$$$oooooooooooooooooooo$$  $$$$$$OOOOOOOO$$$$OO",
"  OO..OOOO$$$$$$$$$$$$$$$$$$$$$$OO$$$$$$$$  $$$$$$$$OO$$$$$$$$$$",
"  OO..OOOO$$$$$$$$$$$$$$$$$$$$$$OO$$$$$$$$  $$$$$$$$OO$$$$$$$$$$",
"  $$OO$$$$$$$$$$$$$$$$$$$$$$$$$$$$$$$$$$      $$$$$$$$$$$$$$$$$$",
"  $$OO$$$$$$$$$$$$$$$$$$$$$$$$$$$$$$$$$$      $$$$$$$$$$$$$$$$$$"
};
