/* XPM */
static char *result[] = {
/* columns rows colors chars-per-pixel */
"64 64 9 1 ",
"  c #2F2E2F",
". c #85578E",
"X c #BE9BB0",
"o c #B4202A",
"O c #564064",
"+ c white",
"@ c #060608",
"# c #FFFC40",
"$ c #3E2F5A",
/* pixels */
"                                                                ",
"                                                                ",
"  ..XXXXXXXXXXXXXXXXXXXX..  ..XXXXXXXXXXXXXXXXXXXXXXXXXXXX..  ..",
"  ..XXXXXXXXXXXXXXXXXXXX..  ..XXXXXXXXXXXXXXXXXXXXXXXXXXXX..  ..",
"  XX....................oooooooooooooooooooo....OO........XX  XX",
"  XX....................oooooooooooooooooooo....OO........XX  XX",
"  ....OOOOOOOO..OOOOOO..oooooooooooooooooooo..OOOOOOOOOOOO..  ..",
"  ....OOOOOOOO..OOOOOO..oooooooooooooooooooo..OOOOOOOOOOOO..  ..",
"  ..OOOOOOOOOOOOOOOOoooo++++@@@@@@@@@@@@####ooooOOOOOO$$OOOO  OO",
"  ..OOOOOOOOOOOOOOOOoooo++++@@@@@@@@@@@@####ooooOOOOOO$$OOOO  OO",
"  OO..OOOO$$$$$$$$$$oooo++++@@@@@@@@@@@@####oooo$$$$$$$$$$$$  $$",
"  OO..OOOO$$$$$$$$$$oooo++++@@@@@@@@@@@@####oooo$$$$$$$$$$$$  $$",
"  $$OOOO$$$$$$$$oooo++++@@@@@@@@@@@@@@@@####oooo$$$$$$$$$$      ",
"  $$OOOO$$$$$$$$oooo++++@@@@@@@@@@@@@@@@####oooo$$$$$$$$$$      ",
"                oooo++++@@@@@@@@@@@@@@@@####oooo                ",
"                oooo++++@@@@@@@@@@@@@@@@####oooo                ",
"  OO............oooo++++@@@@@@@@@@@@@@@@####oooo................",
"  OO............oooo++++@@@@@@@@@@@@@@@@####oooo................",
"  ..............oooo++++@@@@@@@@@@@@@@@@####oooo..........OOOO..",
"  ..............oooo++++@@@@@@@@@@@@@@@@####oooo..........OOOO..",
"  ....OOOOOO..OOoooo++++@@@@@@@@@@@@@@@@####oooo..OO..OOOOOOOOOO",
"  ....OOOOOO..OOoooo++++@@@@@@@@@@@@@@@@####oooo..OO..OOOOOOOOOO",
"  ..OO..OOOOOOOOoooo++++@@@@@@@@@@@@@@@@####oooo$$OOOOOOOO$$$$OO",
"  ..OO..OOOOOOOOoooo++++@@@@@@@@@@@@@@@@####oooo$$OOOOOOOO$$$$OO",
"  ..OOOOOOOOoooo++++@@@@@@@@++++@@@@@@@@####oooo$$$$OOOO$$$$OOOO",
"  ..OOOOOOOOoooo++++@@@@@@@@++++@@@@@@@@####oooo$$$$OOOO$$$$OOOO",
"  OO..OOOOOOoooo++++@@@@@@@@++++@@@@@@@@####oooo$$$$$$$$$$$$$$$$",
"  OO..OOOOOOoooo++++@@@@@@@@++++@@@@@@@@####oooo$$$$$$$$$$$$$$$$",
"  $$OOOO$$$$oooo++++@@@@@@@@++++@@@@@@@@@@@@oooo$$$$$$$$$$$$$$$$",
"  $$OOOO$$$$oooo++++@@@@@@@@++++@@@@@@@@@@@@oooo$$$$$$$$$$$$$$$$",
"            oooo++++@@@@@@@@++++@@@@@@@@@@@@oooo                ",
"            oooo++++@@@@@@@@++++@@@@@@@@@@@@oooo                ",
"  OO....oooo++++@@@@@@@@@@@@++++@@@@@@@@@@@@oooo..      ........",
"  OO....oooo++++@@@@@@@@@@@@++++@@@@@@@@@@@@oooo..      ........",
"  ......oooo++++@@@@@@@@@@@@++++@@@@@@@@@@@@oooo....  ......OO..",
"  ......oooo++++@@@@@@@@@@@@++++@@@@@@@@@@@@oooo....  ......OO..",
"  ......oooo++++@@@@@@@@@@@@@@@@@@@@@@@@@@@@@@@@oooo  ....OOOOOO",
"  ......oooo++++@@@@@@@@@@@@@@@@@@@@@@@@@@@@@@@@oooo  ....OOOOOO",
"  ....OOoooo++++@@@@@@@@@@@@@@@@@@@@@@@@@@@@@@@@oooo  ..OOOO$$OO",
"  ....OOoooo++++@@@@@@@@@@@@@@@@@@@@@@@@@@@@@@@@oooo  ..OOOO$$OO",
"  ..OO..oooo++++@@@@@@@@@@@@@@@@@@@@@@@@@@@@@@@@oooo  $$OOOOOO$$",
"  ..OO..oooo++++@@@@@@@@@@@@@@@@@@@@@@@@@@@@@@@@oooo  $$OOOOOO$$",
"  ..OOOOoooo++++@@@@@@@@@@@@@@@@@@@@@@@@@@@@@@@@oooo  $$$$OOOOOO",
"  ..OOOOoooo++++@@@@@@@@@@@@@@@@@@@@@@@@@@@@@@@@oooo  $$$$OOOOOO",
"  OO..OOoooo++++@@@@@@@@@@@@@@@@@@@@@@@@@@@@@@@@oooo  $$$$$$OO$$",
"  OO..OOoooo++++@@@@@@@@@@@@@@@@@@@@@@@@@@@@@@@@oooo  $$$$$$OO$$",
"  $$OO$$oooo++++@@@@@@@@@@@@@@@@@@@@@@@@@@@@@@@@oooo    $$$$$$$$",
"  $$OO$$oooo++++@@@@@@@@@@@@@@@@@@@@@@@@@@@@@@@@oooo    $$$$$$$$",
"            oooooooooooooooo++++@@@@@@@@@@@@oooo                ",
"            oooooooooooooooo++++@@@@@@@@@@@@oooo                ",
"  OO........oooooooooooooooo++++@@@@@@@@@@@@oooo................",
"  OO........oooooooooooooooo++++@@@@@@@@@@@@oooo................",
"  ......OO..............oooo++++@@@@@@@@@@@@oooo............OO..",
"  ......OO..............oooo++++@@@@@@@@@@@@oooo............OO..",
"  ........OO......OOOO..oooo++++@@@@@@@@@@@@ooooOOOO..OOOOOOOOOO",
"  ........OO......OOOO..oooo++++@@@@@@@@@@@@ooooOOOO..OOOOOOOOOO",
"  ....OOOO..$$..$$OOOOOOOOOOoooooooooooooooo..$$OOOOOOOOOOOO$$OO",
"  ....OOOO..$$..$$OOOOOOOOOOoooooooooooooooo..$$OOOOOOOOOOOO$$OO",
"  ..OOOOOOOO$$$$$$$$OO$$$$OOoooooooooooooooo$$$$$$OOOOOOOO$$$$OO",
"  ..OOOOOOOO$$$$$$$$OO$$$$OOoooooooooooooooo$$$$$$OOOOOOOO$$$$OO",
"  OO..OOOO$$$$$$$$$$$$$$$$$$$$$$OO$$$$$$$$  $$$$$$$$OO$$$$$$$$$$",
"  OO..OOOO$$$$$$$$$$$$$$$$$$$$$$OO$$$$$$$$  $$$$$$$$OO$$$$$$$$$$",
"  $$OO$$$$$$$$$$$$$$$$$$$$$$$$$$$$$$$$$$      $$$$$$$$$$$$$$$$$$",
"  $$OO$$$$$$$$$$$$$$$$$$$$$$$$$$$$$$$$$$      $$$$$$$$$$$$$$$$$$"
};
