/* XPM */
static char *result[] = {
/* columns rows colors chars-per-pixel */
"64 64 9 1 ",
"  c #2F2E2F",
". c #85578E",
"X c #BE9BB0",
"o c #B4202A",
"O c #564064",
"+ c white",
"@ c #060608",
"# c #FFFC40",
"$ c #3E2F5A",
/* pixels */
"                                                                ",
"                                                                ",
"  ..XXXXXXXXXXXXXXXXXXXX..  ..XXXXXXXXXXXXXXXXXXXXXXXXXXXX..  ..",
"  ..XXXXXXXXXXXXXXXXXXXX..  ..XXXXXXXXXXXXXXXXXXXXXXXXXXXX..  ..",
"  XX............ooooooooooooooooooooooooooooooooOO........XX  XX",
"  XX............ooooooooooooooooooooooooooooooooOO........XX  XX",
"  ....OOOOOOOO..ooooooooooooooooooooooooooooooooOOOOOOOOOO..  ..",
"  ....OOOOOOOO..ooooooooooooooooooooooooooooooooOOOOOOOOOO..  ..",
"  ..OOOOOOOOoooo++++@@@@@@@@@@@@@@@@@@@@@@@@####ooooOO$$OOOO  OO",
"  ..OOOOOOOOoooo++++@@@@@@@@@@@@@@@@@@@@@@@@####ooooOO$$OOOO  OO",
"  OO..OOOO$$oooo++++@@@@@@@@@@@@@@@@@@@@@@@@####oooo$$$$$$$$  $$",
"  OO..OOOO$$oooo++++@@@@@@@@@@@@@@@@@@@@@@@@####oooo$$$$$$$$  $$",
"  $$OOOO$$$$oooo++++@@@@@@@@@@@@@@@@@@@@@@@@####oooo$$$$$$      ",
"  $$OOOO$$$$oooo++++@@@@@@@@@@@@@@@@@@@@@@@@####oooo$$$$$$      ",
"            oooo++++@@@@@@@@@@@@@@@@@@@@@@@@####oooo            ",
"            oooo++++@@@@@@@@@@@@@@@@@@@@@@@@####oooo            ",
"  OO........oooo++++@@@@@@@@@@@@oooooooooooooooo................",
"  OO........oooo++++@@@@@@@@@@@@oooooooooooooooo................",
"  ..........oooo++++@@@@@@@@@@@@oooooooooooooooo..........OOOO..",
"  ..........oooo++++@@@@@@@@@@@@oooooooooooooooo..........OOOO..",
"  ....OOOOOOoooo++++@@@@@@@@@@@@oooooooooooo  ....OO..OOOOOOOOOO",
"  ....OOOOOOoooo++++@@@@@@@@@@@@oooooooooooo  ....OO..OOOOOOOOOO",
"  ..OO..OOOOoooo++++@@@@@@@@@@@@oooooooooooo  ..$$OOOOOOOO$$$$OO",
"  ..OO..OOOOoooo++++@@@@@@@@@@@@oooooooooooo  ..$$OOOOOOOO$$$$OO",
"  ..OOOOOOOOoooo++++@@@@@@@@@@@@@@@@@@@@####oooo$$$$OOOO$$$$OOOO",
"  ..OOOOOOOOoooo++++@@@@@@@@@@@@@@@@@@@@####oooo$$$$OOOO$$$$OOOO",
"  OO..OOOOOOoooo++++@@@@@@@@@@@@@@@@@@@@####oooo$$$$$$$$$$$$$$$$",
"  OO..OOOOOOoooo++++@@@@@@@@@@@@@@@@@@@@####oooo$$$$$$$$$$$$$$$$",
"  $$OOOO$$$$oooo++++@@@@@@@@@@@@@@@@@@@@@@@@####oooo$$$$$$$$$$$$",
"  $$OOOO$$$$oooo++++@@@@@@@@@@@@@@@@@@@@@@@@####oooo$$$$$$$$$$$$",
"            oooo++++@@@@@@@@@@@@@@@@@@@@@@@@####oooo            ",
"            oooo++++@@@@@@@@@@@@@@@@@@@@@@@@####oooo            ",
"  OO............oooooooooooooooo++++@@@@@@@@####oooo    ........",
"  OO............oooooooooooooooo++++@@@@@@@@####oooo    ........",
"  ............OOoooooooooooooooo++++@@@@@@@@####oooo  ......OO..",
"  ............OOoooooooooooooooo++++@@@@@@@@####oooo  ......OO..",
"  ......OO..oooo++++@@@@@@@@@@@@++++@@@@@@@@@@@@oooo  ....OOOOOO",
"  ......OO..oooo++++@@@@@@@@@@@@++++@@@@@@@@@@@@oooo  ....OOOOOO",
"  ....OOOO$$oooo++++@@@@@@@@@@@@++++@@@@@@@@@@@@oooo  ..OOOO$$OO",
"  ....OOOO$$oooo++++@@@@@@@@@@@@++++@@@@@@@@@@@@oooo  ..OOOO$$OO",
"  ..OO..OOOOoooo++++@@@@@@@@@@@@++++@@@@@@@@@@@@oooo  $$OOOOOO$$",
"  ..OO..OOOOoooo++++@@@@@@@@@@@@++++@@@@@@@@@@@@oooo  $$OOOOOO$$",
"  ..OOOOOOOOoooo++++@@@@@@@@@@@@++++@@@@@@@@@@@@oooo  $$$$OOOOOO",
"  ..OOOOOOOOoooo++++@@@@@@@@@@@@++++@@@@@@@@@@@@oooo  $$$$OOOOOO",
"  OO..OOOO$$oooo++++@@@@@@@@@@@@++++@@@@@@@@@@@@oooo  $$$$$$OO$$",
"  OO..OOOO$$oooo++++@@@@@@@@@@@@++++@@@@@@@@@@@@oooo  $$$$$$OO$$",
"  $$OO$$$$$$oooo++++@@@@@@@@@@@@++++@@@@@@@@@@@@oooo    $$$$$$$$",
"  $$OO$$$$$$oooo++++@@@@@@@@@@@@++++@@@@@@@@@@@@oooo    $$$$$$$$",
"            oooo++++@@@@@@@@@@@@@@@@@@@@@@@@@@@@oooo            ",
"            oooo++++@@@@@@@@@@@@@@@@@@@@@@@@@@@@oooo            ",
"  OO........oooo++++@@@@@@@@@@@@@@@@@@@@@@@@@@@@oooo............",
"  OO........oooo++++@@@@@@@@@@@@@@@@@@@@@@@@@@@@oooo............",
"  ......OO......oooo++++@@@@@@@@@@@@@@@@@@@@oooo............OO..",
"  ......OO......oooo++++@@@@@@@@@@@@@@@@@@@@oooo............OO..",
"  ........OO....oooo++++@@@@@@@@@@@@@@@@@@@@ooooOOOO..OOOOOOOOOO",
"  ........OO....oooo++++@@@@@@@@@@@@@@@@@@@@ooooOOOO..OOOOOOOOOO",
"  ....OOOO..$$..$$OOoooooooooooooooooooooooo..$$OOOOOOOOOOOO$$OO",
"  ....OOOO..$$..$$OOoooooooooooooooooooooooo..$$OOOOOOOOOOOO$$OO",
"  ..OOOOOOOO$$$$$$$$oooooooooooooooooooooooo$$$$$$OOOOOOOO$$$$OO",
"  ..OOOOOOOO$$$$$$$$oooooooooooooooooooooooo$$$$$$OOOOOOOO$$$$OO",
"  OO..OOOO$$$$$$$$$$$$$$$$$$$$$$OO$$$$$$$$  $$$$$$$$OO$$$$$$$$$$",
"  OO..OOOO$$$$$$$$$$$$$$$$$$$$$$OO$$$$$$$$  $$$$$$$$OO$$$$$$$$$$",
"  $$OO$$$$$$$$$$$$$$$$$$$$$$$$$$$$$$$$$$      $$$$$$$$$$$$$$$$$$",
"  $$OO$$$$$$$$$$$$$$$$$$$$$$$$$$$$$$$$$$      $$$$$$$$$$$$$$$$$$"
};
