/* XPM */
static char *result[] = {
/* columns rows colors chars-per-pixel */
"64 64 9 1 ",
"  c #2F2E2F",
". c #85578E",
"X c #BE9BB0",
"o c #B4202A",
"O c #564064",
"+ c white",
"@ c #060608",
"# c #FFFC40",
"$ c #3E2F5A",
/* pixels */
"                                                                ",
"                                                                ",
"  ..XXXXXXXXXXXXXXXXXXXX..  ..XXXXXXXXXXXXXXXXXXXXXXXXXXXX..  ..",
"  ..XXXXXXXXXXXXXXXXXXXX..  ..XXXXXXXXXXXXXXXXXXXXXXXXXXXX..  ..",
"  XX................oooooooooooooooooooooooo....OO........XX  XX",
"  XX................oooooooooooooooooooooooo....OO........XX  XX",
"  ....OOOOOOOO..OOOOoooooooooooooooooooooooo..OOOOOOOOOOOO..  ..",
"  ....OOOOOOOO..OOOOoooooooooooooooooooooooo..OOOOOOOOOOOO..  ..",
"  ..OOOOOOOOOOOOoooo++++@@@@@@@@@@@@@@@@####ooooOOOOOO$$OOOO  OO",
"  ..OOOOOOOOOOOOoooo++++@@@@@@@@@@@@@@@@####ooooOOOOOO$$OOOO  OO",
"  OO..OOOO$$$$$$oooo++++@@@@@@@@@@@@@@@@####oooo$$$$$$$$$$$$  $$",
"  OO..OOOO$$$$$$oooo++++@@@@@@@@@@@@@@@@####oooo$$$$$$$$$$$$  $$",
"  $$OOOO$$$$oooo++++@@@@@@@@@@@@@@@@@@@@@@@@####oooo$$$$$$      ",
"  $$OOOO$$$$oooo++++@@@@@@@@@@@@@@@@@@@@@@@@####oooo$$$$$$      ",
"            oooo++++@@@@@@@@@@@@@@@@@@@@@@@@####oooo            ",
"            oooo++++@@@@@@@@@@@@@@@@@@@@@@@@####oooo            ",
"  OO........oooo++++@@@@@@@@@@@@++++@@@@@@@@####oooo............",
"  OO........oooo++++@@@@@@@@@@@@++++@@@@@@@@####oooo............",
"  ..........oooo++++@@@@@@@@@@@@++++@@@@@@@@####oooo......OOOO..",
"  ..........oooo++++@@@@@@@@@@@@++++@@@@@@@@####oooo......OOOO..",
"  ....OOOOOOoooo++++@@@@@@@@@@@@oooooooooooooooo..OO..OOOOOOOOOO",
"  ....OOOOOOoooo++++@@@@@@@@@@@@oooooooooooooooo..OO..OOOOOOOOOO",
"  ..OO..OOOOoooo++++@@@@@@@@@@@@oooooooooooooooo$$OOOOOOOO$$$$OO",
"  ..OO..OOOOoooo++++@@@@@@@@@@@@oooooooooooooooo$$OOOOOOOO$$$$OO",
"  ..OOOOOOOOoooo++++@@@@@@@@@@@@@@@@@@@@@@@@oooo$$$$OOOO$$$$OOOO",
"  ..OOOOOOOOoooo++++@@@@@@@@@@@@@@@@@@@@@@@@oooo$$$$OOOO$$$$OOOO",
"  OO..OOOOOOoooo++++@@@@@@@@@@@@@@@@@@@@@@@@oooo$$$$$$$$$$$$$$$$",
"  OO..OOOOOOoooo++++@@@@@@@@@@@@@@@@@@@@@@@@oooo$$$$$$$$$$$$$$$$",
"  $$OOOO$$$$oooo++++@@@@@@@@@@@@@@@@@@@@@@@@####oooo$$$$$$$$$$$$",
"  $$OOOO$$$$oooo++++@@@@@@@@@@@@@@@@@@@@@@@@####oooo$$$$$$$$$$$$",
"            oooo++++@@@@@@@@@@@@@@@@@@@@@@@@####oooo            ",
"            oooo++++@@@@@@@@@@@@@@@@@@@@@@@@####oooo            ",
"  OO........oooo++++@@@@@@@@@@@@++++@@@@@@@@####oooo    ........",
"  OO........oooo++++@@@@@@@@@@@@++++@@@@@@@@####oooo    ........",
"  ..........oooo++++@@@@@@@@@@@@++++@@@@@@@@####oooo  ......OO..",
"  ..........oooo++++@@@@@@@@@@@@++++@@@@@@@@####oooo  ......OO..",
"  ......OO..oooo++++@@@@@@@@@@@@++++@@@@@@@@@@@@oooo  ....OOOOOO",
"  ......OO..oooo++++@@@@@@@@@@@@++++@@@@@@@@@@@@oooo  ....OOOOOO",
"  ....OOOO$$oooo++++@@@@@@@@@@@@++++@@@@@@@@@@@@oooo  ..OOOO$$OO",
"  ....OOOO$$oooo++++@@@@@@@@@@@@++++@@@@@@@@@@@@oooo  ..OOOO$$OO",
"  ..OO..OOOOoooo++++@@@@@@@@@@@@++++@@@@@@@@@@@@oooo  $$OOOOOO$$",
"  ..OO..OOOOoooo++++@@@@@@@@@@@@++++@@@@@@@@@@@@oooo  $$OOOOOO$$",
"  ..OOOOOOOOoooo++++@@@@@@@@@@@@++++@@@@@@@@@@@@oooo  $$$$OOOOOO",
"  ..OOOOOOOOoooo++++@@@@@@@@@@@@++++@@@@@@@@@@@@oooo  $$$$OOOOOO",
"  OO..OOOO$$oooo++++@@@@@@@@@@@@++++@@@@@@@@@@@@oooo  $$$$$$OO$$",
"  OO..OOOO$$oooo++++@@@@@@@@@@@@++++@@@@@@@@@@@@oooo  $$$$$$OO$$",
"  $$OO$$$$$$oooo++++@@@@@@@@@@@@++++@@@@@@@@@@@@oooo    $$$$$$$$",
"  $$OO$$$$$$oooo++++@@@@@@@@@@@@++++@@@@@@@@@@@@oooo    $$$$$$$$",
"            oooo++++@@@@@@@@@@@@@@@@@@@@@@@@@@@@oooo            ",
"            oooo++++@@@@@@@@@@@@@@@@@@@@@@@@@@@@oooo            ",
"  OO........oooo++++@@@@@@@@@@@@@@@@@@@@@@@@@@@@oooo............",
"  OO........oooo++++@@@@@@@@@@@@@@@@@@@@@@@@@@@@oooo............",
"  ......OO......oooo++++@@@@@@@@@@@@@@@@@@@@oooo............OO..",
"  ......OO......oooo++++@@@@@@@@@@@@@@@@@@@@oooo............OO..",
"  ........OO....oooo++++@@@@@@@@@@@@@@@@@@@@ooooOOOO..OOOOOOOOOO",
"  ........OO....oooo++++@@@@@@@@@@@@@@@@@@@@ooooOOOO..OOOOOOOOOO",
"  ....OOOO..$$..$$OOoooooooooooooooooooooooo..$$OOOOOOOOOOOO$$OO",
"  ....OOOO..$$..$$OOoooooooooooooooooooooooo..$$OOOOOOOOOOOO$$OO",
"  ..OOOOOOOO$$$$$$$$oooooooooooooooooooooooo$$$$$$OOOOOOOO$$$$OO",
"  ..OOOOOOOO$$$$$$$$oooooooooooooooooooooooo$$$$$$OOOOOOOO$$$$OO",
"  OO..OOOO$$$$$$$$$$$$$$$$$$$$$$OO$$$$$$$$  $$$$$$$$OO$$$$$$$$$$",
"  OO..OOOO$$$$$$$$$$$$$$$$$$$$$$OO$$$$$$$$  $$$$$$$$OO$$$$$$$$$$",
"  $$OO$$$$$$$$$$$$$$$$$$$$$$$$$$$$$$$$$$      $$$$$$$$$$$$$$$$$$",
"  $$OO$$$$$$$$$$$$$$$$$$$$$$$$$$$$$$$$$$      $$$$$$$$$$$$$$$$$$"
};
