/* XPM */
static char *result[] = {
/* columns rows colors chars-per-pixel */
"64 64 9 1 ",
"  c #2F2E2F",
". c #85578E",
"X c #BE9BB0",
"o c #B4202A",
"O c #564064",
"+ c white",
"@ c #060608",
"# c #FFFC40",
"$ c #3E2F5A",
/* pixels */
"                                                                ",
"                                                                ",
"  ..XXXXXXXXXXXXXXXXXXXX..  ..XXXXXXXXXXXXXXXXXXXXXXXXXXXX..  ..",
"  ..XXXXXXXXXXXXXXXXXXXX..  ..XXXXXXXXXXXXXXXXXXXXXXXXXXXX..  ..",
"  XX................ooooooooooooooooooooooooooooOO........XX  XX",
"  XX................ooooooooooooooooooooooooooooOO........XX  XX",
"  ....OOOOOOOO..OOOOooooooooooooooooooooooooooooOOOOOOOOOO..  ..",
"  ....OOOOOOOO..OOOOooooooooooooooooooooooooooooOOOOOOOOOO..  ..",
"  ..OOOOOOOOOOOOoooo++++@@@@@@@@@@@@@@@@########ooooOO$$OOOO  OO",
"  ..OOOOOOOOOOOOoooo++++@@@@@@@@@@@@@@@@########ooooOO$$OOOO  OO",
"  OO..OOOO$$$$$$oooo++++@@@@@@@@@@@@@@@@########oooo$$$$$$$$  $$",
"  OO..OOOO$$$$$$oooo++++@@@@@@@@@@@@@@@@########oooo$$$$$$$$  $$",
"  $$OOOO$$$$$$$$oooo++++@@@@@@@@@@@@@@@@@@@@####oooo$$$$$$      ",
"  $$OOOO$$$$$$$$oooo++++@@@@@@@@@@@@@@@@@@@@####oooo$$$$$$      ",
"                oooo++++@@@@@@@@@@@@@@@@@@@@####oooo            ",
"                oooo++++@@@@@@@@@@@@@@@@@@@@####oooo            ",
"  OO................oooooooooooo++++@@@@@@@@####oooo............",
"  OO................oooooooooooo++++@@@@@@@@####oooo............",
"  ..................oooooooooooo++++@@@@@@@@####oooo......OOOO..",
"  ..................oooooooooooo++++@@@@@@@@####oooo......OOOO..",
"  ....OOOOOO..OOOO..OOOOOO..oooo++++@@@@@@@@####oooo..OOOOOOOOOO",
"  ....OOOOOO..OOOO..OOOOOO..oooo++++@@@@@@@@####oooo..OOOOOOOOOO",
"  ..OO..OOOOOOOOOOOOOO$$OOOOoooo++++@@@@@@@@####ooooOOOOOO$$$$OO",
"  ..OO..OOOOOOOOOOOOOO$$OOOOoooo++++@@@@@@@@####ooooOOOOOO$$$$OO",
"  ..OOOOOOOOOO$$OOOO$$$$$$OOoooo++++@@@@@@@@####ooooOOOO$$$$OOOO",
"  ..OOOOOOOOOO$$OOOO$$$$$$OOoooo++++@@@@@@@@####ooooOOOO$$$$OOOO",
"  OO..OOOOOO$$$$$$$$$$$$$$$$oooo++++@@@@@@@@####oooo$$$$$$$$$$$$",
"  OO..OOOOOO$$$$$$$$$$$$$$$$oooo++++@@@@@@@@####oooo$$$$$$$$$$$$",
"  $$OOOO$$$$$$$$$$$$$$$$$$$$oooo++++@@@@@@@@oooo$$$$$$$$$$$$$$$$",
"  $$OOOO$$$$$$$$$$$$$$$$$$$$oooo++++@@@@@@@@oooo$$$$$$$$$$$$$$$$",
"                            oooo++++@@@@@@@@oooo                ",
"                            oooo++++@@@@@@@@oooo                ",
"  OO................    oooo++++@@@@@@@@@@@@oooo..      ........",
"  OO................    oooo++++@@@@@@@@@@@@oooo..      ........",
"  ............OO......  oooo++++@@@@@@@@@@@@oooo....  ......OO..",
"  ............OO......  oooo++++@@@@@@@@@@@@oooo....  ......OO..",
"  ......OO..OOOOOO....  oooo++++@@@@@@@@@@@@oooo....  ....OOOOOO",
"  ......OO..OOOOOO....  oooo++++@@@@@@@@@@@@oooo....  ....OOOOOO",
"  ....OOOO$$OOOOOOOO..  oooo++++@@@@@@@@@@@@ooooOO..  ..OOOO$$OO",
"  ....OOOO$$OOOOOOOO..  oooo++++@@@@@@@@@@@@ooooOO..  ..OOOO$$OO",
"  ..OO..OOOO$$OOOOOO$$  oooo++++@@@@@@@@@@@@ooooOO$$  $$OOOOOO$$",
"  ..OO..OOOO$$OOOOOO$$  oooo++++@@@@@@@@@@@@ooooOO$$  $$OOOOOO$$",
"  ..OOOOOOOO$$$$OO$$$$  oooo++++@@@@@@@@@@@@oooo$$$$  $$$$OOOOOO",
"  ..OOOOOOOO$$$$OO$$$$  oooo++++@@@@@@@@@@@@oooo$$$$  $$$$OOOOOO",
"  OO..OOOO$$$$$$$$$$$$  oooo++++@@@@@@@@ooooOO$$$$$$  $$$$$$OO$$",
"  OO..OOOO$$$$$$$$$$$$  oooo++++@@@@@@@@ooooOO$$$$$$  $$$$$$OO$$",
"  $$OO$$$$$$$$$$$$$$    oooo++++@@@@@@@@oooo$$$$$$      $$$$$$$$",
"  $$OO$$$$$$$$$$$$$$    oooo++++@@@@@@@@oooo$$$$$$      $$$$$$$$",
"                    oooo++++@@@@@@@@@@@@oooo                    ",
"                    oooo++++@@@@@@@@@@@@oooo                    ",
"  OO................oooo++++@@@@@@@@@@@@oooo  ..................",
"  OO................oooo++++@@@@@@@@@@@@oooo  ..................",
"  ......OO..........oooo++++@@@@@@@@@@@@oooo................OO..",
"  ......OO..........oooo++++@@@@@@@@@@@@oooo................OO..",
"  ........OO......OOoooo++++@@@@@@@@@@@@oooo....OOOO..OOOOOOOOOO",
"  ........OO......OOoooo++++@@@@@@@@@@@@oooo....OOOO..OOOOOOOOOO",
"  ....OOOO..$$..$$OOOOOOoooooooooooooooo..  ..$$OOOOOOOOOOOO$$OO",
"  ....OOOO..$$..$$OOOOOOoooooooooooooooo..  ..$$OOOOOOOOOOOO$$OO",
"  ..OOOOOOOO$$$$$$$$OO$$oooooooooooooooo$$  $$$$$$OOOOOOOO$$$$OO",
"  ..OOOOOOOO$$$$$$$$OO$$oooooooooooooooo$$  $$$$$$OOOOOOOO$$$$OO",
"  OO..OOOO$$$$$$$$$$$$$$$$$$$$$$OO$$$$$$$$  $$$$$$$$OO$$$$$$$$$$",
"  OO..OOOO$$$$$$$$$$$$$$$$$$$$$$OO$$$$$$$$  $$$$$$$$OO$$$$$$$$$$",
"  $$OO$$$$$$$$$$$$$$$$$$$$$$$$$$$$$$$$$$      $$$$$$$$$$$$$$$$$$",
"  $$OO$$$$$$$$$$$$$$$$$$$$$$$$$$$$$$$$$$      $$$$$$$$$$$$$$$$$$"
};
