/* XPM */
static char *result[] = {
/* columns rows colors chars-per-pixel */
"64 64 14 1 ",
"  c #2F262A",
". c #0A090D",
"X c #251F22",
"o c #252241",
"O c #2C3068",
"+ c #5CA6E1",
"@ c #3C5393",
"# c #6C2B44",
"$ c #96515E",
"% c #121014",
"& c #433986",
"* c #696DB1",
"= c #ADA9C7",
"- c white",
/* pixels */
"                            ....                            ....",
"                            ....                            ....",
"                            ....                            ....",
"                            ....                            ....",
"    XXXXXXXXXXXXXXXXXXXX oooooooooooooXXXXXXXXXXXXXXXXXX    ....",
"    XXXXXXXXXXXXXXXXXoXooOOOOOOoOOOOOOooXoXXXXXXXXXXXXXX    ....",
"    XXXXXXXXXXXXXXXooOoOO+++++OoO+++++OOoOooXXXXXXXXXXXX    ....",
"    XXXXXXXXXXXXXooOOOoOO@@@@@OoO@@@@@OOoOOOooXXXXXXXXXX    ....",
"    XXXXXXXXXXXXoOO++OOoO@@@@@OoO@@@@@OoOO++OOoXXXXXXXXX    ....",
"    XXXXXXXXXXXoO++@@+OoOO@@@@OoO@@@@OOoO+@@++OoXXXXXXXX    ....",
"    XXXXXXXXXooO+@@@@@OOoOOOOOOoOOOOOOoOO@@@@@+OooXXXXXX    ....",
"    XXXXXXXXoOO+@@@@@@OOooOOOOoooOOOOOoOO@@@@@@+OOoXXXXX    ....",
"    XXXXXXXoOoOO@@@@@OOoooooooooooooooooOO@@@@@OOoOoXXXX    ....",
"    XXXXXXXoOOoOO@@@OOoooooooooooooooooooOO@@@OOoOOoXXXX    ....",
"    XXXXXXoO++OoOOOOOoooo####ooooo####ooooOOOOOoO++OoXXX    ....",
"    XXXXXXoO@@+OoOOOooooo#####ooo#####oooooOOOoO+@@OoXXX    ....",
"    XXXXXoO+@@@+Oooooooo##$$##ooo##$$##oooooooO+@@@+OoXX    ....",
"    XXXXXoO@@@@@Ooooo#oo#$$$$#ooo#$$$$#oo#ooooO@@@@@OoXX    ....",
"    XXXXoOOO@@@OOooo##oo#$$$$#ooo#$$$$#oo##oooOO@@@OOOoX    ....",
"    XXXXoOOOOOOOooo###oo#$$$$#ooo#$$$$#oo###oooOOOOOOOoX    ....",
"    XXXXXoooOOOooo####oo#$$$$#ooo#$$$$#oo####oooOOOoooXX    ....",
"    XXXXoOOOoooooo#$##oo#$$$$#ooo#$$$$#oo##$#ooooooOOOoX    ....",
"    XXXXoOOOOOooo##$$#oo#$$$$#ooo#$$$$#oo#$$##oooOOOOOoX    ....",
"    XXXXoO+++OOoo#$$$#oo#$$$$#ooo#$$$$#oo#$$$#ooOO+++OoX    ....",
"        oO@@@+Ooo#$$$#oo#$$$$#ooo#$$$$#oo#$$$#ooO+@@@Oo     ....",
"        oO@@@@Ooo#$$$#oo#$$$$#ooo#$$$$#oo#$$$#ooO@@@@Oo     ....",
"        oO@@@@Oooo#$#oooo#$$#ooooo#$$#oooo#$#oooO@@@@Oo     ....",
"        oO@@@@OoooooooooooooooooooooooooooooooooO@@@@Oo     ....",
"%%%%%%%%oOOOOOOoo&&&&&&&&&&&&&&&&&&&&&&&&&&&&&ooOOOOOOo%%%%%....",
"%%%%%%%%oOOOOOoo&*******************=*=====***&ooOOOOOo%%%%%....",
"%%%%%%%%%ooooooo&*******************=*=====***&ooooooo%%%%%%....",
"%%%%%%%%oOOOOOoo&*******************=*=====***&ooOOOOOo%%%%%....",
"        oO++++Oo&&******************=*=====**&&oO++++Oo     ....",
"        oO@@@@Oo&&&&&&&&&&&&&&&&&&&&&&&&&&&&&&&oO@@@@Oo     ....",
"        oO@@@@Ooo&&&&&&&&&&&&&&&&&&&&&&&&&&&&&ooO@@@@Oo     ....",
"        oO@@@@OoooooooooooooooooooooooooooooooooO@@@@Oo     ....",
"    XXXXoO@@@@Oooo###oooo####ooooo####oooo###oooO@@@@OoX    ....",
"    XXXXoOOOOOOoo#####oo######ooo######oo#####ooOOOOOOoX    ....",
"    XXXXoOOOOOooo##$##oo##$$##ooo##$$##oo##$##oooOOOOOoX    ....",
"    XXXXXoooooooo#$$$#oo#$$$$#ooo#$$$$#oo#$$$#ooooooooXX    ....",
"    XXXXoOOOOOooo#$$$#oo#$$$$#ooo#$$$$#oo#$$$#oooOOOOOoX    ....",
"    XXXXoO++++Ooo#$$$#oo#$$$$#ooo#$$$$#oo#$$$#ooO++++OoX    ....",
"    XXXXoO@@@@Ooo#$$$#oo#$$$$#ooo#$$$$#oo#$$$#ooO@@@@OoX    ....",
"    XXXXoO@@@@Ooo#$$$#oo#$$$$#ooo#$$$$#oo#$$$#ooO@@@@OoX    ....",
"    XXXXoO@@@@Oooo#$#oooo#$$#ooooo#$$#oooo#$#oooO@@@@OoX    ....",
"    XXXXoO@@@@OoooooooooooooooooooooooooooooooooO@@@@OoX    ....",
"    XXXXoO@@@@Ooo&&&&&&&&&&&&&&&&&&&&&&&&&&&&&ooO@@@@OoX    ....",
"    XXXXoOOOOOOo&*******************=*=====***&oOOOOOOoX    ....",
"    XXXXoOOOOOoo&*******************=*=====***&ooOOOOOoX    ....",
"    XXXXXooooooo&*******************=*=====***&oooooooXX    ....",
"    XXXXoOOOOOoo&&******************=*=====**&&ooOOOOOoX    ....",
"    XXXXoO++++Oo&&&&&&&&&&&&&&&&&&&&&&&&&&&&&&&oO++++OoX    ....",
"    XXXXoO@@@@Ooo&&&&&&&&&&&&&&&&&&&&&&&&&&&&&ooO@@@@OoX    ....",
"    XXXXoO@@@@OoooooooooooooooooooooooooooooooooO@@@@OoX    ....",
"    XXXXoOOOOOoooo###oooo####ooooo####oooo###ooooOOOOOoX    ....",
"    XXXXXoooooooo#####oo######ooo######oo#####ooooooooXX    ....",
"        oOOOOOooo##$##oo##$$##ooo##$$##oo##$##oooOOOOOo     ....",
"        oO@++@Oooo$$$oooo$$$$ooooo$$$$oooo$$$oooO@++@Oo     ....",
"       ooOOOOOoooooooooooooooooooooooooooooooooooOOOOOoo    ....",
"      ooooooooooooooooooooooooooooooooooooooooooooooooooo   ....",
"%%%%%%%%%%%%%%%%%%%%%%%%%%%%....%%%%%%%%%%%%%%%%%%%%%%%%%%%%....",
"%%%%%%%%%%%%%%%%%%%%%%%%%%%%....%%%%%%%%%%%%%%%%%%%%%%%%%%%%....",
"%%%%%%%%%%%%%%%%%%%%%%%%%%%%....%%%%%%%%%%%%%%%%%%%%%%%%%%%%....",
"%%%%%%%%%%%%%%%%%%%%%%%%%%%%....%%%%%%%%%%%%%%%%%%%%%%%%%%%%...."
};
