/* XPM */
static char *result[] = {
/* columns rows colors chars-per-pixel */
"64 64 14 1 ",
"  c #2F262A",
". c #0A090D",
"X c #251F22",
"o c #252241",
"O c #2C3068",
"+ c #5CA6E1",
"@ c #3C5393",
"# c #6C2B44",
"$ c #96515E",
"% c #121014",
"& c #433986",
"* c #ADA9C7",
"= c #696DB1",
"- c white",
/* pixels */
"                            ....                            ....",
"                            ....                            ....",
"                            ....                            ....",
"                            ....                            ....",
"    XXXXXXXXXXXXXXXXXXXX oooooooooooooXXXXXXXXXXXXXXXXXX    ....",
"    XXXXXXXXXXXXXXXXXoXooOOOOOOoOOOOOOooXoXXXXXXXXXXXXXX    ....",
"    XXXXXXXXXXXXXXXooOoOO+++++OoO+++++OOoOooXXXXXXXXXXXX    ....",
"    XXXXXXXXXXXXXooOOOoOO@@@@@OoO@@@@@OOoOOOooXXXXXXXXXX    ....",
"    XXXXXXXXXXXXoOO++OOoO@@@@@OoO@@@@@OoOO++OOoXXXXXXXXX    ....",
"    XXXXXXXXXXXoO++@@+OoOO@@@@OoO@@@@OOoO+@@++OoXXXXXXXX    ....",
"    XXXXXXXXXooO+@@@@@OOoOOOOOOoOOOOOOoOO@@@@@+OooXXXXXX    ....",
"    XXXXXXXXoOO+@@@@@@OOooOOOOoooOOOOOoOO@@@@@@+OOoXXXXX    ....",
"    XXXXXXXoOoOO@@@@@OOoooooooooooooooooOO@@@@@OOoOoXXXX    ....",
"    XXXXXXXoOOoOO@@@OOoooooooooooooooooooOO@@@OOoOOoXXXX    ....",
"    XXXXXXoO++OoOOOOOoooooooooooooooooooooOOOOOoO++OoXXX    ....",
"    XXXXXXoO@@+OoOOOoooooooooooooooooooooooOOOoO+@@OoXXX    ....",
"    XXXXXoO+@@@+OoooooooooooooooooooooooooooooO+@@@+OoXX    ....",
"    XXXXXoO@@@@@Ooooo#ooooooooooooooooooooooooO@@@@@OoXX    ....",
"    XXXXoOOO@@@OOooo###oooooooooooooooooooooooOO@@@OOOoX    ....",
"    XXXXoOOOOOOOooo$###ooooooooooooooooooooooooOOOOOOOoX    ....",
"    XXXXXoooOOOooo$$###o#oooooooooooooooooooooooOOOoooXX    ....",
"    XXXXoOOOoooooo$$###o#ooooooooooooooooooooooooooOOOoX    ....",
"    XXXXoOOOOOooo$$$###o#ooooooooooooooooooooooooOOOOOoX    ....",
"    XXXXoO+++OOoo$$$###o#oooooooooooooooooooooooOO+++OoX    ....",
"        oO@@@+Ooo$$$###o#oooooooooooooooooooooooO+@@@Oo     ....",
"        oO@@@@Ooo$$$###o#oooooooooooooooooooooooO@@@@Oo     ....",
"        oO@@@@Ooo$$$###o#oooooooooooooooooooooooO@@@@Oo     ....",
"        oO@@@@Oooooooo#o#oooooooooooooooooooooooO@@@@Oo     ....",
"%%%%%%%%oOOOOOOoo&&&&ooo#oooooooooooooooooooooooOOOOOOo%%%%%....",
"%%%%%%%%oOOOOOoo&****&oo#ooooooooooooooooooooooooOOOOOo%%%%%....",
"%%%%%%%%%ooooooo&====&&o#ooooooooooooooooooooooooooooo%%%%%%....",
"%%%%%%%%oOOOOOoo&====&&o#ooooooooooooooooooooooooOOOOOo%%%%%....",
"        oO++++Oo&&===&&o#oooooooooooooooooooooooO++++Oo     ....",
"        oO@@@@Oo&&&&&&oo#oooooooooooooooooooooooO@@@@Oo     ....",
"        oO@@@@Ooo&&&&ooo#oooooooooooooooooooooooO@@@@Oo     ....",
"        oO@@@@Oooooooo#o#oooooooooooooooooooooooO@@@@Oo     ....",
"    XXXXoO@@@@Ooo$$$###o#oooooooooooooooooooooooO@@@@OoX    ....",
"    XXXXoOOOOOOoo$$$###o#oooooooooooooooooooooooOOOOOOoX    ....",
"    XXXXoOOOOOooo$$$###o#ooooooooooooooooooooooooOOOOOoX    ....",
"    XXXXXoooooooo$$$###o#oooooooooooooooooooooooooooooXX    ....",
"    XXXXoOOOOOooo$$$###o#ooooooooooooooooooooooooOOOOOoX    ....",
"    XXXXoO++++Ooo$$$###o#oooooooooooooooooooooooO++++OoX    ....",
"    XXXXoO@@@@Ooo$$$###o#oooooooooooooooooooooooO@@@@OoX    ....",
"    XXXXoO@@@@Ooo$$$###o#oooooooooooooooooooooooO@@@@OoX    ....",
"    XXXXoO@@@@Ooo$$$###o#oooooooooooooooooooooooO@@@@OoX    ....",
"    XXXXoO@@@@Oooooooo#o#oooooooooooooooooooooooO@@@@OoX    ....",
"    XXXXoO@@@@Ooo&&&&ooo#oooooooooooooooooooooooO@@@@OoX    ....",
"    XXXXoOOOOOOo&****&oo#oooooooooooooooooooooooOOOOOOoX    ....",
"    XXXXoOOOOOoo&====&&o#ooooooooooooooooooooooooOOOOOoX    ....",
"    XXXXXooooooo&====&&o#oooooooooooooooooooooooooooooXX    ....",
"    XXXXoOOOOOoo&&===&&o#ooooooooooooooooooooooooOOOOOoX    ....",
"    XXXXoO++++Oo&&&&&&oo#oooooooooooooooooooooooO++++OoX    ....",
"    XXXXoO@@@@Ooo&&&&ooo#oooooooooooooooooooooooO@@@@OoX    ....",
"    XXXXoO@@@@Oooooooo#o#oooooooooooooooooooooooO@@@@OoX    ....",
"    XXXXoOOOOOooo$$$###o#ooooooooooooooooooooooooOOOOOoX    ....",
"    XXXXXoooooooo$$$###oooooooooooooooooooooooooooooooXX    ....",
"        oOOOOOooo$$$##oooooooooooooooooooooooooooOOOOOo     ....",
"        oO@++@Ooo$$$#oooooooooooooooooooooooooooO@++@Oo     ....",
"       ooOOOOOoooooooooooooooooooooooooooooooooooOOOOOoo    ....",
"      ooooooooooooooooooooooooooooooooooooooooooooooooooo   ....",
"%%%%%%%%%%%%%%%%%%%%%%%%%%%%....%%%%%%%%%%%%%%%%%%%%%%%%%%%%....",
"%%%%%%%%%%%%%%%%%%%%%%%%%%%%....%%%%%%%%%%%%%%%%%%%%%%%%%%%%....",
"%%%%%%%%%%%%%%%%%%%%%%%%%%%%....%%%%%%%%%%%%%%%%%%%%%%%%%%%%....",
"%%%%%%%%%%%%%%%%%%%%%%%%%%%%....%%%%%%%%%%%%%%%%%%%%%%%%%%%%...."
};
