/* XPM */
static char *c9c802139fe247eadfeecf2c17a61187oxpKIcil5bp9D5No[] = {
/* columns rows colors chars-per-pixel */
"64 64 30 1 ",
"  c #0A090D",
". c #121014",
"X c #251F22",
"o c #2F262A",
"O c #212C36",
"+ c #6A1C13",
"@ c #4A3121",
"# c #4A3F2C",
"$ c #6D5B33",
"% c #7F603F",
"& c #2B3D48",
"* c #364F5B",
"= c #426771",
"- c #903D2D",
"; c #A6543B",
": c #C67648",
"> c #9D814C",
", c #B19C55",
"< c #918568",
"1 c #A99F79",
"2 c #E79A56",
"3 c #CCC060",
"4 c #4D8487",
"5 c #57A9A1",
"6 c #C3BD8F",
"7 c #D8D698",
"8 c #F8DD8A",
"9 c #F2F3C7",
"0 c #EFEEE0",
"q c #FBFAEF",
/* pixels */
"oooooooooooooooooooooooooooo    oooooooooooooooooooooooooooo    ",
"oooooooooooooooooooooooooooo    oooooooooooooooooooooooooooo    ",
"oooooooooooooooooooooooooooo    oooooooooooooooooooooooooooo    ",
"oooooooooooooooooooooooooooo    oooooooooooooooooooooooooooo    ",
"ooooXXXXXXXXXXXXXXXXXXXXoooo    ooooXXXXXXXXXXXXXXXXXXXXoooo    ",
"ooooXXXXXXXXXXXXXXXXXXXXoooo    ooooXXXXXXXXXXXXXXXXXXXXoooo    ",
"ooooXXXXXXXXXXXXXXXXXXXXoooo    ooooXXXXXXXXXXXXXXXXXXXXoooo    ",
"ooooXXXXXXXXXXXXXXXXXXXXoooo    ooooXXXXXXXXXXXXXXXXXXXXoooo    ",
"ooooXXXXXXXXXXXXXXXXXXXXoooo    ooooXXXXXXXXXXXXXXXXXXXXoooo    ",
"ooooXXXXXXXXXXXXXXXXXXXXoooo    ooooXXXXXXXXXXXXXXXXXXXXoooo    ",
"ooooXXXXXXXXXXXXXXXXXXXXoooo    ooooXXXXXXXXXXXXXXXXXXXXoooo    ",
"ooooXXXXXXXXXXXXXXXXXXXXoooo    ooooXXXXXXXXXXXXXXXXXXXXoooo    ",
"ooooXXXXXXXXXXXXXXXXXXXXoooo    ooooXXXXXXXXXXXXXXXXXXXXoooo    ",
"ooooXXXXXXXXXXXXXXXXXXXXoooo    ooooXXXXXXXXXXXXXXXXXXXXoooo    ",
"ooooXXXXXXXXXXXXXXXXXXXXooo+    ooooXXXXXXXXXXXXXXXXXXXXoooo    ",
"ooooXXXXXXXXXXXXXXXXXXXXoo+2+   ooooXXXXXXXXXXXXXXXXXXXXoooo    ",
"ooooXXXXXXXXXXXXXXXXXXXXo+:2:+OOooooXXXXXXXXXXXXXXXXXXXXoooo    ",
"ooooXXXXXXXXXXXXXXXXXXXXO=;:;44=OoooXXXXXXXXXXXXXXXXXXXXoooo    ",
"ooooXXXXXXXXXXXXXXXXXXXO=44;4444=OooXXXXXXXXXXXXXXXXXXXXoooo    ",
"ooooXXXXXXXXXXXXXXXXXXO=454;45444=OoXXXXXXXXXXXXXXXXXXXXoooo    ",
"ooooXXXXXXXXXXXXXXOOOXO=555455544=OoOOOXXXXXXXXXXXXXXXXXoooo    ",
"ooooXXXXXXXXXXXXXXO54OO=455555444=OO45OXXXXXXXXXXXXXXXXXoooo    ",
"ooooXXXXXXXXXXXXXXXO=4O*=4=4=44==*O4=O$$XXXXXXXXXXXXXXXXoooo    ",
"ooooXXXXXXXXXXXXXXXXO=-&O=*4*=O&=*-=O$0$XXXXXXXXXXXXXXXXoooo    ",
"ooooooooooooooooooooO*-*8O454O8==*-*O0$ooooooooooooooooooooo    ",
"oooooooooooooooooooooO-==4555==4=-;O@$@@o$$ooooooooooooooooo    ",
"oooooooooooooooooooOO+:-44O5O*44-;:+>,33$00$oooooooooooooooo    ",
"oooooooooooooooooOO5+2:*q=*O*=q4=*:2+>,,,$$ooooooooooooooooo    ",
"................O5544+2;OOOOOOO4=;2+@@>>>@..................    ",
"................O#O5==+:;=55544=;:+&@%@@@&O.................    ",
"..............###<>O4O+2:;*:*==;:2+*@%@O&*=O................    ",
"............##<<76#OO..+2:::2:::2+*=*@..O==O................    ",
"oooooooooo##1<76##oooooo+2+222+2+*=4=OooOO=Ooooooooooooooooo    ",
"oooooooo##6677##ooooooooo+O+2+*+*44=OoooooOooooooooooooooooo    ",
"ooooooo#6679##ooooooooooooO&+*&&&**&Oooooooooooooooooooooooo    ",
"ooooooo#####ooooooooooooooo@@&*&*&@@oooooooooooooooooooooooo    ",
"ooooXXXXXXXXXXXXXXXXXXXXooO@%@@@@@%@OXXXXXXXXXXXXXXXXXXXoooo    ",
"ooooXXXXXXXXXXXXXXXXXXXXooO@>>>,>%@*OXXXXXXXXXXXXXXXXXXXoooo    ",
"ooooXXXXXXXXXXXXXXXXXXXXooO@,@,,,@*=OXXXXXXXXXXXXXXXXXXXoooo    ",
"ooooXXXXXXXXXXXXXXXXXXXXoooO@O@3@O555OXXXXXXXXXXXXXXXXXXoooo    ",
"ooooXXXXXXXXXXXXXXXXXXXXoooo   @oO444OXXXXXXXXXXXXXXXXXXoooo    ",
"ooooXXXXXXXXXXXXXXXXXXXXoooo    ooOOOXXXXXXXXXXXXXXXXXXXoooo    ",
"ooooXXXXXXXXXXXXXXXXXXXXoooo    ooooXXXXXXXXXXXXXXXXXXXXoooo    ",
"ooooXXXXXXXXXXXXXXXXXXXXoooo    ooooXXXXXXXXXXXXXXXXXXXXoooo    ",
"ooooXXXXXXXXXXXXXXXXXXXXoooo    ooooXXXXXXXXXXXXXXXXXXXXoooo    ",
"ooooXXXXXXXXXXXXXXXXXXXXoooo    ooooXXXXXXXXXXXXXXXXXXXXoooo    ",
"ooooXXXXXXXXXXXXXXXXXXXXoooo    ooooXXXXXXXXXXXXXXXXXXXXoooo    ",
"ooooXXXXXXXXXXXXXXXXXXXXoooo    ooooXXXXXXXXXXXXXXXXXXXXoooo    ",
"ooooXXXXXXXXXXXXXXXXXXXXoooo    ooooXXXXXXXXXXXXXXXXXXXXoooo    ",
"ooooXXXXXXXXXXXXXXXXXXXXoooo    ooooXXXXXXXXXXXXXXXXXXXXoooo    ",
"ooooXXXXXXXXXXXXXXXXXXXXoooo    ooooXXXXXXXXXXXXXXXXXXXXoooo    ",
"ooooXXXXXXXXXXXXXXXXXXXXoooo    ooooXXXXXXXXXXXXXXXXXXXXoooo    ",
"ooooXXXXXXXXXXXXXXXXXXXXoooo    ooooXXXXXXXXXXXXXXXXXXXXoooo    ",
"ooooXXXXXXXXXXXXXXXXXXXXoooo    ooooXXXXXXXXXXXXXXXXXXXXoooo    ",
"ooooXXXXXXXXXXXXXXXXXXXXoooo    ooooXXXXXXXXXXXXXXXXXXXXoooo    ",
"ooooXXXXXXXXXXXXXXXXXXXXoooo    ooooXXXXXXXXXXXXXXXXXXXXoooo    ",
"oooooooooooooooooooooooooooo    oooooooooooooooooooooooooooo    ",
"oooooooooooooooooooooooooooo    oooooooooooooooooooooooooooo    ",
"oooooooooooooooooooooooooooo    oooooooooooooooooooooooooooo    ",
"oooooooooooooooooooooooooooo    oooooooooooooooooooooooooooo    ",
"............................    ............................    ",
"............................    ............................    ",
"............................    ............................    ",
"............................    ............................    "
};
