/* XPM */
static char *result[] = {
/* columns rows colors chars-per-pixel */
"64 64 29 1 ",
"  c #2F262A",
". c #0A090D",
"X c #251F22",
"o c #6A1C13",
"O c #E79A56",
"+ c #212C36",
"@ c #C67648",
"# c #426771",
"$ c #4D8487",
"% c #A6543B",
"& c #57A9A1",
"* c #364F5B",
"= c #903D2D",
"- c #2B3D48",
"; c #F8DD8A",
": c #121014",
"> c #FBFAEF",
", c #4A3121",
"< c #9D814C",
"1 c #B19C55",
"2 c #E1EAF2",
"3 c #CCC060",
"4 c #918568",
"5 c #4A3F2C",
"6 c #A99F79",
"7 c #D8D698",
"8 c #C3BD8F",
"9 c #F2F3C7",
"0 c white",
/* pixels */
"                            ....                            ....",
"                            ....                            ....",
"                            ....                            ....",
"                            ....                            ....",
"    XXXXXXXXXXXXXXXXXXXX    ....    XXXXXXXXXXXXXXXXXXXX    ....",
"    XXXXXXXXXXXXXXXXXXXX    ....    XXXXXXXXXXXXXXXXXXXX    ....",
"    XXXXXXXXXXXXXXXXXXXX    ....    XXXXXXXXXXXXXXXXXXXX    ....",
"    XXXXXXXXXXXXXXXXXXXX    ....    XXXXXXXXXXXXXXXXXXXX    ....",
"    XXXXXXXXXXXXXXXXXXXX    ....    XXXXXXXXXXXXXXXXXXXX    ....",
"    XXXXXXXXXXXXXXXXXXXX    ....    XXXXXXXXXXXXXXXXXXXX    ....",
"    XXXXXXXXXXXXXXXXXXXX    ....    XXXXXXXXXXXXXXXXXXXX    ....",
"    XXXXXXXXXXXXXXXXXXXX    ....    XXXXXXXXXXXXXXXXXXXX    ....",
"    XXXXXXXXXXXXXXXXXXXX    ....    XXXXXXXXXXXXXXXXXXXX    ....",
"    XXXXXXXXXXXXXXXXXXXX    ....    XXXXXXXXXXXXXXXXXXXX    ....",
"    XXXXXXXXXXXXXXXXXXXX    ....    XXXXXXXXXXXXXXXXXXXX    ....",
"    XXXXXXXXXXXXXXXXXXXX    ....    XXXXXXXXXXXXXXXXXXXX    ....",
"    XXXXXXXXXXXXXXXXXXXX    ....    XXXXXXXXXXXXXXXXXXXX    ....",
"    XXXXXXXXXXXXXXXXXXXX    ....    XXXXXXXXXXXXXXXXXXXX    ....",
"    XXXXXXXXXXXXXXXXXXXX    ....   oXXXXXXXXXXXXXXXXXXXX    ....",
"    XXXXXXXXXXXXXXXXXXXX    ....  oOoXXXXXXXXXXXXXXXXXXX    ....",
"    XXXXXXXXXXXXXXXXXXXX    ...++o@O@oXXXXXXXXXXXXXXXXXX    ....",
"    XXXXXXXXXXXXXXXXXXXX    ..+#$$%@%#+XXXXXXXXXXXXXXXXX    ....",
"    XXXXXXXXXXXXXXXXXXXX    .+$$$&$%$&$+XXXXXXXXXXXXXXXX    ....",
"    XXXXXXXXXXXXXXXXXXXX+++ +#$$&&&%&&&#+X+++XXXXXXXXXXX    ....",
"                        +&$++#$$$&&$&&$#++$&+               ....",
"                         +#$+*##$$#$#$#*+$#+                ....",
"                          +#=*#-+#*$*#+-=#+                 ....",
"                          +*=*##;+$&$+;*=*+                 ....",
":::::::::::::::::::::::::::o@%#$##&&&$#=@o-+::::::::::::::::....",
"::::::::::::::::::::::::::oooo=$>*+&+$>*@Oo+::::::::::::::::....",
":::::::::::::::::::::::::::+##+$+++++++%Oo&$+:::::::::::::::....",
"::::::::::::::::::::::::::+#$&#++$&&&#%@o#$$+:::::::::::::::....",
"                          +*#$&&#+*@#%@Oo+#+                ....",
"                          +-+#$&&$+O@@Oo  +                 ....",
"                           ,-+#$$#*+oOo                     ....",
"                           ,,,+*###++o                      ....",
"    XXXXXXXXXXXXXXXXXXXX  +,<<<++#$$&+XXXXXXXXXXXXXXXXXX    ....",
"    XXXXXXXXXXXXXXXXXXXX  +,1,111+$&&&+XXXXXXXXXXXXXXXXX    ....",
"2   XXXXXXXXXXXXXXXXXXXX  +-,.,3,++$&$+XXXXXXXXXXXXXXXXX    ....",
" 2  XXXXXXXXXXXXXXXXXXXX +*--+., ++#$+455XXXXXXXXXXXXXXX    ....",
"  2 XXXXXXXXXXXXXXXXXXXX  +++... +$+#+46755XXXXXXXXXXXXX    ....",
"   2XXXXXXXXXXXXXXXXXXXX    ....  ++++5468755XXXXXXXXXXX    ....",
"    2XXXXXXXXXXXXXXXXXXX    ....    XXX55687755XXXXXXXXX    ....",
"    222XXXXXXXXXXXXXXXXX    ....    XX22255687955XXXXXXX    ....",
"    X222XXXXXX2XXXXXXXXX    ....    22225555545555XXXXXX    ....",
"    XX2222XXXXX2XXXXXXXX    .... 2222255522545522XXXXXXX    ....",
"    XXXX22222XXXX222XXXX    .2222225552225555222XXXXXXXX    ....",
"    XXXXX2222222XXX2222222222225255222255552222XXXXXXXXX    ....",
"    XXXXXXX22222222XXXXX 2222222222255555222XXXXXXXXXXXX    ....",
"    XXXXXXXXX2222522222222222222255555222XXXXXXXXXXXXXXX    ....",
"    XXXXXXXXXXXX2222222522252555552222XXXXXXXXXXXXXXXXXX    ....",
"    XXXXXXXXXXXXXXXXXX22222222222   XXXXXXXXXXXXXXXXXXXX    ....",
"    XXXXXXXXXXXXXXXXXXXX    ....    XXXXXXXXXXXXXXXXXXXX    ....",
"    XXXXXXXXXXXXXXXXXXXX    ....    XXXXXXXXXXXXXXXXXXXX    ....",
"    XXXXXXXXXXXXXXXXXXXX    ....    XXXXXXXXXXXXXXXXXXXX    ....",
"    XXXXXXXXXXXXXXXXXXXX    ....    XXXXXXXXXXXXXXXXXXXX    ....",
"                            ....                            ....",
"                            ....                            ....",
"                            ....                            ....",
"                            ....                            ....",
"::::::::::::::::::::::::::::....::::::::::::::::::::::::::::....",
"::::::::::::::::::::::::::::....::::::::::::::::::::::::::::....",
"::::::::::::::::::::::::::::....::::::::::::::::::::::::::::....",
"::::::::::::::::::::::::::::....::::::::::::::::::::::::::::...."
};
