/* XPM */
static char *result[] = {
/* columns rows colors chars-per-pixel */
"64 64 19 1 ",
"  c #2F262A",
". c #0A090D",
"X c #251F22",
"o c #6A45A5",
"O c #170F24",
"+ c #3A2F5A",
"@ c #2A1B41",
"# c #B5A75A",
"$ c #FAFFA5",
"% c #625613",
"& c #5EBE4B",
"* c #234B1B",
"= c #FDFFD6",
"- c #121014",
"; c #1C2B35",
": c #5E978E",
"> c #3C5C71",
", c #2A4150",
"< c white",
/* pixels */
"                            ....                            ....",
"                            ....                            ....",
"                            ....                            ....",
"                            ....                            ....",
"    XXXXXXXXXXXXXXXoXXXX    ....    XXXXXXXXXXoXXXXXXXXX    ....",
"    XXXXXXXXXXXXXXOooXXX    ....    XXXXXXXXXooOXXXXXXXX    ....",
"    XXXXXXXXXXXXXXO+ooXX    ....    XXXXXXXXoo+OXXXXXXXX    ....",
"    XXXXXXXXXXXXXO+++ooX    ....    XXXXXXXoo+++OXXXXXXX    ....",
"    XXXXXXXXXXXXXO+++ooo    ....    XXXXXXooo+++OXXXXXXX    ....",
"    XXXXXXXXXXXXXO++++ooo   ....    XXXXXooo++++OXXXXXXX    ....",
"    XXXXXXXXXXXXO@+++++ooo  ....    XXXXooo+++++@OXXXXXX    ....",
"    XXXXXXXXXXXXO@+++++oooooooooooooooooooo+++++@OXXXXXX    ....",
"    XXXXXXXXXXXXO@++++++oooooooooooooooooo++++++@OXXXXXX    ....",
"    XXXXXXXXXXXXO@++++++oo++++++++++++++oo++++++@OXXXXXX    ....",
"    XXXXXXXXXXXXO@+++@+o++++++++++++++++++o+++++@OXXXXXX    ....",
"    XXXXXXXXXXXXO@@+@o++++++++++++++++++++++@+++@OXXXXXX    ....",
"    XXXXXXXXXXXXO@@@o+++++++++++++++++++++++o@+@@OXXXXXX    ....",
"    XXXXXXXXXXXXO@@@o++++++++++++++++++++++++o@@@OXXXXXX    ....",
"    XXXXXXXXXXXXXO@o++++++++oooooooooo+++++++o@@OXXXXXXX    ....",
"    XXXXXXXXXXXXXOO+++++++oo##########oo++++++oOOXXXXXXX    ....",
"    XXXXXXXXXXXXXO++++++oo##############oo++++++OXXXXXXX    ....",
"    XXXXXXXXXXXXO++++++o##################o++++++OXXXXXX    ....",
"    XXXXXXXXXXXXO+++++o#####$%%$$$$%%######o+++++OXXXXXX    ....",
"    XXXXXXXXXXXO++++++o###$$$$$$$$$$$$$####o++++++OXXXXX    ....",
"              O+++++++o##$$$$$$$$$$$$$$$$##o+++++++O        ....",
"             O+++++++##$$%%&*=$$$$$$=*&%%$$#O+++++++O       ....",
"            O@@+++++O#$$==&&*&=$$$$=&*&&==$$#O+++++@@O      ....",
"             OO@@+++O#$$$$=&*&&$$$$&&*&=$$$$#O+++@@OO       ....",
"---------------OO@@@@O#$$$$$$$$$==$$$$$$$$$#O@@@@OO---------....",
"-----------------OO@@@O#$$$$$$$$%%$$$$$$$$#O@@@OO-----------....",
"-------------------OOOOO#$$$$$$$$$$$$$$$$#OOOOO-------------....",
"------------------------OOO$$$$$$$$$$$$OOO------------------....",
"                         OOOOOOOOOOOO@@OO      ==           ....",
"                        O@@;::>;##;>::;@@O    =$$$          ....",
"                       O@@@;:>,;##;,>:;@@@O   $$$$          ....",
"                       O@@@;,,;####;,,;@@@O    $$#          ....",
"    XXXXXXXXXXXXXXXXXXO+++@@;;##$$##;;@@+++OXXX$#%XXXXXX    ....",
"    XXXXXXXXXXXXXXXXXXO++++@O##$$$$##O@++++OXXX##%XXXXXX    ....",
"    XXXXXXXXXXXXXXXXXO+++++O##$$$$$$##O+++++OX##%XXXXXXX    ....",
"    XXXXXXXXXXXXXXXXXO++++O##$$$$$$$$##O++++O%##%XXXXXXX    ....",
"    XXXXXXXXXXXXXXXXO+++++O#$$$$$$$$$$#O+++++O#%XXXXXXXX    ....",
"    XXXXXXXXXXXXXXXXO+++++O$$$$$$$$$$$$O+++++O%XXXXXXXXX    ....",
"    XXXXXXXXXXXXXXXXO++++O$$#$$$$$$$$#$$O++++O%XXXXXXXXX    ....",
"    XXXXXXXXXXXXXXXO@++++O$$#$$=##=$$#$$O++++@OXXXXXXXXX    ....",
"    XXXXXXXXXXXXXXXO@++++O$$#%$=##=$%#$$O++++@OXXXXXXXXX    ....",
"    XXXXXXXXXXXXXXO@@++++O$$$%==%%==%$$$O++++@@OXXXXXXXX    ....",
"    XXXXXXXXXXXXXX@@+++++O$$$#%=%%=%#$$$O+++++@@XXXXXXXX    ....",
"    XXXXXXXXXXXXXO++++++O#$$$$#%%%%#$$$$#O+++++@OXXXXXXX    ....",
"    XXXXXXXXXXXXO++++@++O#$$$$$####$$$$$#O++@+++OXXXXXXX    ....",
"    XXXXXXXXXXXXO+++++++O#$$$$$$$$$$$$$$#O+++++++OXXXXXX    ....",
"    XXXXXXXXXXXO+@++++++O#$$$$$$$$$$$$$$#O++++++@+OXXXXX    ....",
"    XXXXXXXXXXO+++++@+++O#$$$$$$$$$$$$$$#O+++@+++++OXXXX    ....",
"    XXXXXXXXXO+@++++++++O#$$$$$$$$$$$$$$#@++++++++@+OXXX    ....",
"    XXXXXXXXO+@++++@++++@O$$$$$====$$$$$O@++++@++++@+OXX    ....",
"    XXXXXXXXXO@@++@@++++@O$$$$$####$$$$$O@++++@@++@@OXXX    ....",
"    XXXXXXXXXXOO@@@@@@@@@O#$$$######$$$#O@@@@@@@@@OOXXXX    ....",
"                OOO@@@@@@O%#$$#%%%%#####O@@@@@@OOO          ....",
"                   OOOOOO  %%%..  %%$$#% OOOOOO             ....",
"                            ....  %====%                    ....",
"                            ....   %$$%                     ....",
"----------------------------....----%%----------------------....",
"----------------------------....----------------------------....",
"----------------------------....----------------------------....",
"----------------------------....----------------------------...."
};
