/* XPM */
static char *result[] = {
/* columns rows colors chars-per-pixel */
"64 64 19 1 ",
"  c #2F262A",
". c #0A090D",
"X c #251F22",
"o c #6A45A5",
"O c #170F24",
"+ c #3A2F5A",
"@ c #2A1B41",
"# c #B5A75A",
"$ c #FAFFA5",
"% c #625613",
"& c #5EBE4B",
"* c #234B1B",
"= c #FDFFD6",
"- c #121014",
"; c #1C2B35",
": c #5E978E",
"> c #3C5C71",
", c #2A4150",
"< c white",
/* pixels */
"                            ....                            ....",
"                            ....                            ....",
"                            ....                            ....",
"                            ....                            ....",
"    XXXXXXXXXXXXXXXoXXXX    ....    XXXXXXXXXXoXXXXXXXXX    ....",
"    XXXXXXXXXXXXXXOooXXX    ....    XXXXXXXXXooOXXXXXXXX    ....",
"    XXXXXXXXXXXXXXO+ooXX    ....    XXXXXXXXoo+OXXXXXXXX    ....",
"    XXXXXXXXXXXXXO+++ooX    ....    XXXXXXXoo+++OXXXXXXX    ....",
"    XXXXXXXXXXXXXO+++ooo    ....    XXXXXXooo+++OXXXXXXX    ....",
"    XXXXXXXXXXXXXO++++ooo   ....    XXXXXooo++++OXXXXXXX    ....",
"    XXXXXXXXXXXXO@+++++ooo  ....    XXXXooo+++++@OXXXXXX    ....",
"    XXXXXXXXXXXXO@+++++oooooooooooooooooooo+++++@OXXXXXX    ....",
"    XXXXXXXXXXXXO@++++++oooooooooooooooooo++++++@OXXXXXX    ....",
"    XXXXXXXXXXXXO@++++++oo++++++++++++++oo++++++@OXXXXXX    ....",
"    XXXXXXXXXXXXO@+++@+o++++++++++++++++++o+++++@OXXXXXX    ....",
"    XXXXXXXXXXXXO@@+@o++++++++++++++++++++++@+++@OXXXXXX    ....",
"    XXXXXXXXXXXXO@@@o+++++++++++++++++++++++o@+@@OXXXXXX    ....",
"    XXXXXXXXXXXXO@@@o++++++++++++++++++++++++o@@@OXXXXXX    ....",
"    XXXXXXXXXXXXXO@o++++++++oooooooooo+++++++o@@OXXXXXXX    ....",
"    XXXXXXXXXXXXXOO+++++++oo##########oo++++++oOOXXXXXXX    ....",
"    XXXXXXXXXXXXXO++++++oo##############oo++++++OXXXXXXX    ....",
"    XXXXXXXXXXXXO++++++o##################o++++++OXXXXXX    ....",
"    XXXXXXXXXXXXO+++++o#####$%%$$$$%%######o+++++OXXXXXX    ....",
"    XXXXXXXXXXXO++++++o###$$$$$$$$$$$$$####o++++++OXXXXX    ....",
"              O+++++++o##$$$$$$$$$$$$$$$$##o+++++++O        ....",
"             O+++++++##$$%%&*=$$$$$$=*&%%$$#O+++++++O       ....",
"            O@@+++++O#$$==&&*&=$$$$=&*&&==$$#O+++++@@O      ....",
"             OO@@+++O#$$$$=&*&&$$$$&&*&=$$$$#O+++@@OO       ....",
"---------------OO@@@@O#$$$$$$$$$==$$$$$$$$$#O@@@@OO---------....",
"-----------------OO@@@O#$$$$$$$$%%$$$$$$$$#O@@@OO-----------....",
"-------------------OOOOO#$$$$$$$$$$$$$$$$#OOOOO-------------....",
"------------------------OOO$$$$$$$$$$$$OOO------------------....",
"                          OOOOOOOOOOOOOO                    ....",
"                         O@@;:>,;;,>:;@@O       $=          ....",
"                        O@@;::>;##;>::;@@O     $$$=         ....",
"                       O@@@;:>,;##;,>:;@@@O     $$=         ....",
"    XXXXXXXXXXXXXXXXXXXO@@@;,,;####;,,;@@@OXXXXX#$$XXXXX    ....",
"    XXXXXXXXXXXXXXXXXXO+++@@;;##$$##;;@@+++OXXXX#$$XXXXX    ....",
"    XXXXXXXXXXXXXXXXXXO++++@O##$$$$##O@++++OXXXX#$#XXXXX    ....",
"    XXXXXXXXXXXXXXXXXO+++++O##$$$$$$##O+++++OXX%$$XXXXXX    ....",
"    XXXXXXXXXXXXXXXXXO++++O##$$$$$$$$##O++++O%%##%XXXXXX    ....",
"    XXXXXXXXXXXXXXXXO+++++O#$$$$$$$$$$#O+++++O##%XXXXXXX    ....",
"    XXXXXXXXXXXXXXXXO+++++O$$$$$$$$$$$$O+++++O#%XXXXXXXX    ....",
"    XXXXXXXXXXXXXXXXO++++O$$#$$$$$$$$#$$O++++O%XXXXXXXXX    ....",
"    XXXXXXXXXXXXXXXO@++++O$$#$$=##=$$#$$O++++OXXXXXXXXXX    ....",
"    XXXXXXXXXXXXXXXO@++++O$$#%$=##=$%#$$O++++OXXXXXXXXXX    ....",
"    XXXXXXXXXXXXXXO@@++++O$$$%==%%==%$$$O++++@OXXXXXXXXX    ....",
"    XXXXXXXXXXXXXX@@+++++O$$$#%=%%=%#$$$O++++@@XXXXXXXXX    ....",
"    XXXXXXXXXXXXXO++++++O#$$$$#%%%%#$$$$#O+++++OXXXXXXXX    ....",
"    XXXXXXXXXXXXO++++@++O#$$$$$####$$$$$#O++@+++OXXXXXXX    ....",
"    XXXXXXXXXXXXO+++++++O#$$$$$$$$$$$$$$#O++++++OXXXXXXX    ....",
"    XXXXXXXXXXXO+@++++++O#$$$$$$$$$$$$$$#O+++++@+OXXXXXX    ....",
"    XXXXXXXXXXO+++++@+++O#$$$$$$$$$$$$$$#O+++@++++OXXXXX    ....",
"    XXXXXXXXXO+@++++++++O#$$$$$$$$$$$$$$#@+++++++@+OXXXX    ....",
"    XXXXXXXXO+@++++@++++@O$$$$$####$$$$$O@++++@+++@+OXXX    ....",
"    XXXXXXXXXO@@++@@++++@O#$$$######$$$$O@++++@++@@OXXXX    ....",
"              OO@@@@@@@@@O#####%%%%#$$$#O@@@@@@@@OO         ....",
"                OOO@@@@@@O%#$$#%   #$$#%O@@@@@@OOO          ....",
"                   OOOOOO %====%    %%%  OOOOOO             ....",
"                           %$$%.                            ....",
"----------------------------%%..----------------------------....",
"----------------------------....----------------------------....",
"----------------------------....----------------------------....",
"----------------------------....----------------------------...."
};
