/* XPM */
static char *result[] = {
/* columns rows colors chars-per-pixel */
"64 64 19 1 ",
"  c #2F262A",
". c #0A090D",
"X c #251F22",
"o c #6A45A5",
"O c #3A2F5A",
"+ c #170F24",
"@ c #2A1B41",
"# c #B5A75A",
"$ c #FAFFA5",
"% c #FDFFD6",
"& c #625613",
"* c #234B1B",
"= c #5EBE4B",
"- c #121014",
"; c #2A4150",
": c #1C2B35",
"> c #73A8A0",
", c #5E978E",
"< c white",
/* pixels */
"                            ....                            ....",
"                            ....                            ....",
"                            ....                            ....",
"                            ....                            ....",
"    XXXXXXXXXXXXXXXXXXXX    ....    XXXXXXXXXXXXXXXXXXXX    ....",
"    XXXXXXXXXXXXXXXXXXXX    ....    XXXXXXXXXXXXXXXXXXXX    ....",
"    XXXXXXXXXXXXXXXXXXXX    ....    XXXoOoooooXXXXXXXXXX    ....",
"    XXXXXXXXXXXXXXXXXXXX    ....    XoOooOOOO+XXXXXXXXXX    ....",
"    XXXXXXXXXXXXXXXXXXXX    ....   oOooOOOOOO+XXXXXXXXXX    ....",
"    XXXXXXXXXXXXXXXXXXXX    .... oOooOOOOOOO@+XXXXXXXXXX    ....",
"    XXXXXXXXXXXXXXXXXXXX    ...oOooOOOOOOOO@+XXXXXXXXXXX    ....",
"    XXXXXXXXXXXXXXXXXXXX   ooooooOOOOOOOOO@@+XXXXXXXXXXX    ....",
"    XXXXXXXXXXXXXXXXXXXX ooooooo@@OOOOOO@@@+XXXXXXXXXXXX    ....",
"    XXXXXXXXXXXXXXXXXXXoooOOOOOOOO@OOO@@@@@+XXXXXXXXXXXX    ....",
"    XXXXXXXXXXXXXXXXXXooOOOOOOOOOOOO@@@@@@+XXXXXXXXXXXXX    ....",
"    XXXXXXXXXXXXXXXXXooOOOOOOOOOOOOOO@@@@@+XXXXXXXXXXXXX    ....",
"    XXXXXXXXXXXXXXXXXoooOOOOOOOOOOOOOO@@@@+XXXXXXXXXXXXX    ....",
"    XXXXXXXXXXXXXXXXXX##ooOOOOOOOOOOOOOO@@+XXXXXXXXXXXXX    ....",
"    XXXXXXXXXXXXXXXXX#$$##ooOOOOOOOOOOOOO+XXXXXXXXXXXXXX    ....",
"    XXXXXXXXXXXXXXXXX#%$$$$#oOOOOOOOOOOOOO+XXXXXXXXXXXXX    ....",
"    XXXXXXXXXXXXXXXXX$&&#$$$oOOOOOOOOOOOOO+XXXXXXXXXXXXX    ....",
"    XXXXXXXXXXXXXXXXX$$$$$$$#oOOOOOOOOOOOO@+XXXXXXXXXXXX    ....",
"    XXXXXXXXXXXXXXXXX$$#%$$$$oOOOOOOOOOOOO@+XXXXXXXXXXXX    ....",
"    XXXXXXXXXXXXXXXXX$$*=&&$$o@OOOOOOOOOOOO@+XXXXXXXXXXX    ....",
"                     $$*==%$$#o@OOOOOOOOOOOOO+              ....",
"                    $$$*=%%%$$#o@OOOOOOOOOOO@@+             ....",
"                   &&%$$%%$$$$##o@OOOOOOOOO@@@@+            ....",
"                   #$$$$$$$$$##+@OOOOOOOOO@@@@+             ....",
"-------------------#$$$$$$$$##+@OOOOOOOO@@@@@+--------------....",
"--------------------#$$$$$$##+@OOOOOOOO@@@@++---------------....",
"---------------------#$$$$##+@OOOOOO@@@@@++-----------------....",
"-----------------------###++@@@@@@@@@@@++-------------------....",
"                         ++++++++++++++                     ....",
"                         ;;:+@@@@@@+                        ....",
"                        >,;:+@@@@@@@+                       ....",
"                       >,;:&+@@@@@@@+                       ....",
"    XXXXXXXXXXXXXXXXXXX,;:&&+@@O@@@@@+XXXXXXXXXXXXXXXXXX    ....",
"    XXXXXXXXXXXXXXXXXXX::&&&+@OO@O@@@+XXXXXXXXXXXXXXXXXX    ....",
"    XXXXXXXXXXXXXXXXXXXX#$#&+@OO@OOO@@+XXXXXXXXXXXXXXXXX    ....",
"    XXXXXXXXXXXXXXXXXXXX#$##+@OOO@OO@O+XXXXXXXXXXXXXXXXX    ....",
"    XXXXXXXXXXXXXXXXXXXX#%$#&+OOO@OOOOO+XXXXXXXXXXXXXXXX    ....",
"    XXXXXXXXXXXXXXXXXXXX%%$$&+OOOOOOOOO+XXXXXXXXXXXXXXXX    ....",
"    XXXXXXXXXXXXXXXXXXX%%$$#&+OOO@OOOOOO+XXXXXXXXXXXXXXX    ....",
"    XXXXXXXXXXXXXXXXXXX%$$#&&+OOOOOOOOOO+XXXXXXXXXXXXXXX    ....",
"    XXXXXXXXXXXXXXXXXX%%$##&&+OOOOOOOOOOO+XXXXXXXXXXXXXX    ....",
"    XXXXXXXXXXXXXXXXXX#$$#&$&+OOOOOOOOOOOO+XXXXXXXXXXXXX    ....",
"    XXXXXXXXXXXXXXXXXX#$#&$$#+OOOOOOOOOOOOO+XXXXXXXXXXXX    ....",
"    XXXXXXXXXXXXXXXXXX&$&#$$#+OOOOOOOOOOOOOO+XXXXXX%%%%X    ....",
"    XXXXXXXXXXXXXXXXXXX&&#$$#+OOOOOOOOOOOOOOO+XXXX%$$$$%    ....",
"    XXXXXXXXXXXXXXXXXXXX #$$#+OOOOOOOOOOO@OOOO+XX%$$$$$$    ....",
"    XXXXXXXXXXXXXXXXXXXX #$$#+OOO@OO@OOOOOOOOOO+X$$$$$$X    ....",
"    XXXXXXXXXXXXXXXXXXXX #$$+OOOOOOOOOOOOO@OOOO+$###XXXX    ....",
"    XXXXXXXXXXXXXXXXXXXX #$$+OOOO@OOO@OOOOO@OO@+&&&XXXXX    ....",
"    XXXXXXXXXXXXXXXXXXXX #$$+OOOO@OOO@OOOOOO@@+&&&XXXXXX    ....",
"    XXXXXXXXXXXXXXXXXXXX #$$+OOOOO@OOO@OOOO@@+XXXXXXXXXX    ....",
"    XXXXXXXXXXXXXXXXXXXX  $#@OOOOO@OO@@@@@@++XXXXXXXXXXX    ....",
"                          ##@@OOO@@@@@+++++                 ....",
"                        %%$$@@@@@@++++                      ....",
"                       %####++++++                          ....",
"                            ....                            ....",
"----------------------------....----------------------------....",
"----------------------------....----------------------------....",
"----------------------------....----------------------------....",
"----------------------------....----------------------------...."
};
