/* XPM */
static char *result[] = {
/* columns rows colors chars-per-pixel */
"64 64 19 1 ",
"  c #2F262A",
". c #0A090D",
"X c #6A45A5",
"o c #251F22",
"O c #3A2F5A",
"+ c #170F24",
"@ c #2A1B41",
"# c #B5A75A",
"$ c #FAFFA5",
"% c #FDFFD6",
"& c #625613",
"* c #234B1B",
"= c #5EBE4B",
"- c #121014",
"; c #2A4150",
": c #1C2B35",
"> c #73A8A0",
", c #5E978E",
"< c white",
/* pixels */
"                            ....                            ....",
"                            ....                            ....",
"                            ....                            ....",
"                            ....    X   X                   ....",
"    oooooooooooooooooooo    ....   XXooXXooooooooooooooo    ....",
"    oooooooooooooooooooo    ....  XXO+XX+ooooooooooooooo    ....",
"    oooooooooooooooooooo    .... XXO@XXOO+oooooooooooooo    ....",
"    oooooooooooooooooooo    ....XXO@XXOOO+oooooooooooooo    ....",
"    oooooooooooooooooooo    ...XX@XXXOOOO+oooooooooooooo    ....",
"    oooooooooooooooooooo    ..X@XXXXOOOOO@+ooooooooooooo    ....",
"    oooooooooooooooooooo   XXXXXXXOOOOOOO@+ooooooooooooo    ....",
"    oooooooooooooooooooo XXXXXXX@@OOOOOO@@+ooooooooooooo    ....",
"    oooooooooooooooooooXXXOOOOOOOO@OOOO@@@+ooooooooooooo    ....",
"    ooooooooooooooooooXXOOOOOOOOOOOO@@@@@@+ooooooooooooo    ....",
"    oooooooooooooooooXXOOOOOOOOOOOOOO@@@@@+ooooooooooooo    ....",
"    oooooooooooooooooXXXOOOOOOOOOOOOOO@@@@+ooooooooooooo    ....",
"    oooooooooooooooooo##XXOOOOOOOOOOOOOO@@+ooooooooooooo    ....",
"    ooooooooooooooooo#$$##XXOOOOOOOOOOOOO+oooooooooooooo    ....",
"    ooooooooooooooooo#%$$$$#XOOOOOOOOOOOOO+ooooooooooooo    ....",
"    ooooooooooooooooo$&&#$$$XOOOOOOOOOOOOO+ooooooooooooo    ....",
"    ooooooooooooooooo$$$$$$$#XOOOOOOOOOOOO@+oooooooooooo    ....",
"    ooooooooooooooooo$$#%$$$$XOOOOOOOOOOOO@+oooooooooooo    ....",
"    ooooooooooooooooo$$*=&&$$X@OOOOOOOOOOOO@+ooooooooooo    ....",
"    ooooooooooooooooo$$*==%$$#X@OOOOOOOOOOOOO+oooooooooo    ....",
"                    $$$*=%%%$$#X@OOOOOOOOOOO@@+             ....",
"                   &&%$$%%$$$$##X@OOOOOOOOO@@@@+            ....",
"                   #$$$$$$$$$##+@OOOOOOOOO@@@@+             ....",
"                   #$$$$$$$$##+@OOOOOOOO@@@@@+              ....",
"--------------------#$$$$$$##+@OOOOOOOO@@@@++---------------....",
"---------------------#$$$$##+@OOOOOO@@@@@++-----------------....",
"-----------------------###++@@@@@@@@@@@++-------------------....",
"-------------------------++++++++++++++---------------------....",
"                         ;;:+@@@@@@+                        ....",
"                        >,;:+@@@@@@@+                       ....",
"                       >,;:&+@@@@@@@+                       ....",
"                       ,;:&&+@@O@@@@@+                      ....",
"    ooooooooooooooooooo::&&&+@OO@O@@@+oooooooooooooooooo    ....",
"    oooooooooooooooooooo#$#&+@OO@OOO@@+ooooooooooooooooo    ....",
"    oooooooooooooooooooo#$##+@OOO@OO@O+ooooooooooooooooo    ....",
"    oooooooooooooooooooo#%$#&+OOO@OOOOO+oooooooooooooooo    ....",
"    oooooooooooooooooooo%%$$&+OOOOOOOOO+oooooooooooooooo    ....",
"    ooooooooooooooooooo%%$$#&+OOO@OOOOOO+ooooooooooooooo    ....",
"    ooooooooooooooooooo%$$#&&+OOOOOOOOOO+oooooooooo%%%oo    ....",
"    oooooooooooooooooo%%$##&&+OOOOOOOOOOO+oooooooo%$$$%o    ....",
"    oooooooooooooooooo#$$#&$&+OOOOOOOOOOOO+ooooooo$$$$$o    ....",
"    oooooooooooooooooo#$#&$$#+OOOOOOOOOOOOO+ooooo%$$$$oo    ....",
"    oooooooooooooooooo&$&#$$#+OOOOOOOOOOOOOO+oooo$$#oooo    ....",
"    ooooooooooooooooooo&&#$$#+OOOOOOOOOOOOOOO+ooo$##oooo    ....",
"    oooooooooooooooooooo #$$#+OOOOOOOOOOO@OOOO+oo###oooo    ....",
"    oooooooooooooooooooo #$$#+OOO@OO@OOOOOOOOOO+o#&&oooo    ....",
"    oooooooooooooooooooo #$$+OOOOOOOOOOOOO@OOOO+&&&ooooo    ....",
"    oooooooooooooooooooo #$$+OOOO@OOO@OOOOO@OO@+&&&ooooo    ....",
"    oooooooooooooooooooo #$$+OOOO@OOO@OOOOOO@@+&&&oooooo    ....",
"    oooooooooooooooooooo #$$+OOOOO@OOO@OOOO@@+oooooooooo    ....",
"    oooooooooooooooooooo &##@OOOOO@OO@@@@@@++ooooooooooo    ....",
"    oooooooooooooooooooo&&&#@@OOO@@@@@+++++ooooooooooooo    ....",
"                      $$#&&&@@@@@@++++&                     ....",
"                      $$##& ++++++&&&&                      ....",
"                       ###  .... &###                       ....",
"                            ....                            ....",
"----------------------------....----------------------------....",
"----------------------------....----------------------------....",
"----------------------------....----------------------------....",
"----------------------------....----------------------------...."
};
