/* XPM */
static char *result[] = {
/* columns rows colors chars-per-pixel */
"64 64 19 1 ",
"  c #2F262A",
". c #0A090D",
"X c #251F22",
"o c #6A45A5",
"O c #3A2F5A",
"+ c #170F24",
"@ c #2A1B41",
"# c #B5A75A",
"$ c #FAFFA5",
"% c #FDFFD6",
"& c #625613",
"* c #5EBE4B",
"= c #234B1B",
"- c #121014",
"; c #1C2B35",
": c #2A4150",
"> c #5E978E",
", c #73A8A0",
"< c white",
/* pixels */
"                            ....                            ....",
"                            ....                            ....",
"                            ....                            ....",
"                            ....                            ....",
"    XXXXXXXXXXXXXXXXXXXX    ....    XXXXXXXXXXXXXXXXXXXX    ....",
"    XXXXXXXXXXXXXXXXXXXX    ....    XXXXXXXXXXXXXXXXXXXX    ....",
"    XXXXXXXXXXXXXXoooooOo   ....    XXXXXXXXXXXXXXXXXXXX    ....",
"    XXXXXXXXXXXXXX+OOOOooOo ....    XXXXXXXXXXXXXXXXXXXX    ....",
"    XXXXXXXXXXXXXX+OOOOOOooOo...    XXXXXXXXXXXXXXXXXXXX    ....",
"    XXXXXXXXXXXXXX+@OOOOOOOooOo.    XXXXXXXXXXXXXXXXXXXX    ....",
"    XXXXXXXXXXXXXXX+@OOOOOOOOooOo   XXXXXXXXXXXXXXXXXXXX    ....",
"    XXXXXXXXXXXXXXX+@@OOOOOOOOOooooooXXXXXXXXXXXXXXXXXXX    ....",
"    XXXXXXXXXXXXXXXX+@@@OOOOOO@@oooooooXXXXXXXXXXXXXXXXX    ....",
"    XXXXXXXXXXXXXXXX+@@@@@OOO@OOOOOOOOoooXXXXXXXXXXXXXXX    ....",
"    XXXXXXXXXXXXXXXXX+@@@@@@OOOOOOOOOOOOooXXXXXXXXXXXXXX    ....",
"    XXXXXXXXXXXXXXXXX+@@@@@OOOOOOOOOOOOOOooXXXXXXXXXXXXX    ....",
"    XXXXXXXXXXXXXXXXX+@@@@OOOOOOOOOOOOOOoooXXXXXXXXXXXXX    ....",
"    XXXXXXXXXXXXXXXXX+@@OOOOOOOOOOOOOOoo##XXXXXXXXXXXXXX    ....",
"    XXXXXXXXXXXXXXXXXX+OOOOOOOOOOOOOoo##$$#XXXXXXXXXXXXX    ....",
"    XXXXXXXXXXXXXXXXX+OOOOOOOOOOOOOo#$$$$%#XXXXXXXXXXXXX    ....",
"    XXXXXXXXXXXXXXXXX+OOOOOOOOOOOOOo$$$#&&$XXXXXXXXXXXXX    ....",
"    XXXXXXXXXXXXXXXX+@OOOOOOOOOOOOo#$$$$$$$XXXXXXXXXXXXX    ....",
"    XXXXXXXXXXXXXXXX+@OOOOOOOOOOOOo$$$$%#$$XXXXXXXXXXXXX    ....",
"    XXXXXXXXXXXXXXX+@OOOOOOOOOOOO@o$$&&*=$$XXXXXXXXXXXXX    ....",
"                  +OOOOOOOOOOOOO@o#$$%**=$$                 ....",
"                 +@@OOOOOOOOOOO@o#$$%%%*=$$$                ....",
"                +@@@@OOOOOOOOO@o##$$$$%%$$%&&               ....",
"                 +@@@@OOOOOOOOO@+##$$$$$$$$$#               ....",
"------------------+@@@@@OOOOOOOO@+##$$$$$$$$#---------------....",
"-------------------++@@@@OOOOOOOO@+##$$$$$$#----------------....",
"---------------------++@@@@@OOOOOO@+##$$$$#-----------------....",
"-----------------------++@@@@@@@@@@@++###-------------------....",
"                         ++++++++++++++                     ....",
"                            +@@@@@@+;::                     ....",
"                           +@@@@@@@+;:>,                    ....",
"                           +@@@@@@@+&;:>,                   ....",
"    XXXXXXXXXXXXXXXXXXXX  +@@@@@O@@+&&;:>XXXXXXXXXXXXXXX    ....",
"    XXXXXXXXXXXXXXXXXXXX  +@@@O@OO@+&&&;;XXXXXXXXXXXXXXX    ....",
"    XXXXXXXXXXXXXXXXXXXX +@@OOO@OO@+&#$#XXXXXXXXXXXXXXXX    ....",
"    XXXXXXXXXXXXXXXXXXXX +O@OO@OOO@+##$#XXXXXXXXXXXXXXXX    ....",
"    XXXXXXXXXXXXXXXXXXXX+OOOOO@OOO+&#$%#XXXXXXXXXXXXXXXX    ....",
"    XXXXXXXXXXXXXXXXXXXX+OOOOOOOOO+&$$%%XXXXXXXXXXXXXXXX    ....",
"    XXXXXXXXXXXXXXXXXXX+OOOOOO@OOO+&#$$%%XXXXXXXXXXXXXXX    ....",
"    XXXXXXXXXXXXXXXXXXX+OOOOOOOOOO+&&#$$%XXXXXXXXXXXXXXX    ....",
"    XXXXXXXXXXXXXXXXXX+OOOOOOOOOOO+&&##$%%XXXXXXXXXXXXXX    ....",
"    XXXXXXXXXXXXXXXXX+OOOOOOOOOOOO+&$&#$$#XXXXXXXXXXXXXX    ....",
"    XXXXXXXXXXXXXXXX+OOOOOOOOOOOOO+#$$&#$#XXXXXXXXXXXXXX    ....",
"    XXXXX%%%%XXXXXX+OOOOOOOOOOOOOO+#$$#&$&XXXXXXXXXXXXXX    ....",
"    XXXX%$$$$%XXXX+OOOOOOOOOOOOOOO+#$$#&&XXXXXXXXXXXXXXX    ....",
"    XXXX$$$$$$%XX+OOOO@OOOOOOOOOOO+#$$#XXXXXXXXXXXXXXXXX    ....",
"    XXXXX$$$$$$X+OOOOOOOOOO@OO@OOO+#$$#XXXXXXXXXXXXXXXXX    ....",
"    XXXXXXXX###$+OOOO@OOOOOOOOOOOOO+$$#XXXXXXXXXXXXXXXXX    ....",
"    XXXXXXXXX&&&+@OO@OOOOO@OOO@OOOO+$$#XXXXXXXXXXXXXXXXX    ....",
"    XXXXXXXXXX&&&+@@OOOOOO@OOO@OOOO+$$#XXXXXXXXXXXXXXXXX    ....",
"    XXXXXXXXXXXXXX+@@OOOO@OOO@OOOOO+$$#XXXXXXXXXXXXXXXXX    ....",
"    XXXXXXXXXXXXXXX++@@@@@@OO@OOOOO@#$XXXXXXXXXXXXXXXXXX    ....",
"                     +++++@@@@@OOO@@##                      ....",
"                          ++++@@@@@@$$%%                    ....",
"                            ..++++++####%                   ....",
"                            ....                            ....",
"----------------------------....----------------------------....",
"----------------------------....----------------------------....",
"----------------------------....----------------------------....",
"----------------------------....----------------------------...."
};
