/* XPM */
static char *result[] = {
/* columns rows colors chars-per-pixel */
"64 64 19 1 ",
"  c #2F262A",
". c #0A090D",
"X c #6A45A5",
"o c #251F22",
"O c #170F24",
"+ c #3A2F5A",
"@ c #2A1B41",
"# c #B5A75A",
"$ c #FAFFA5",
"% c #FDFFD6",
"& c #625613",
"* c #5EBE4B",
"= c #234B1B",
"- c #121014",
"; c #1C2B35",
": c #2A4150",
"> c #5E978E",
", c #73A8A0",
"< c white",
/* pixels */
"                            ....                            ....",
"                            ....                            ....",
"                            ....                            ....",
"                       X   X....                            ....",
"    oooooooooooooooooooXX  XX...    oooooooooooooooooooo    ....",
"    oooooooooooooooooooOXXO+XX..    oooooooooooooooooooo    ....",
"    ooooooooooooooooooO++XX@+XX.    oooooooooooooooooooo    ....",
"    ooooooooooooooooooO+++XX@+XX    oooooooooooooooooooo    ....",
"    ooooooooooooooooooO++++XXX@XX   oooooooooooooooooooo    ....",
"    oooooooooooooooooO@+++++XXXX@X  oooooooooooooooooooo    ....",
"    oooooooooooooooooO@+++++++XXXXXXXooooooooooooooooooo    ....",
"    oooooooooooooooooO@@++++++@@XXXXXXXooooooooooooooooo    ....",
"    oooooooooooooooooO@@@++++@++++++++XXXooooooooooooooo    ....",
"    oooooooooooooooooO@@@@@@++++++++++++XXoooooooooooooo    ....",
"    oooooooooooooooooO@@@@@++++++++++++++XXooooooooooooo    ....",
"    oooooooooooooooooO@@@@++++++++++++++XXXooooooooooooo    ....",
"    oooooooooooooooooO@@++++++++++++++XX##oooooooooooooo    ....",
"    ooooooooooooooooooO+++++++++++++XX##$$#ooooooooooooo    ....",
"    oooooooooooooooooO+++++++++++++X#$$$$%#ooooooooooooo    ....",
"    oooooooooooooooooO+++++++++++++X$$$#&&$ooooooooooooo    ....",
"    ooooooooooooooooO@++++++++++++X#$$$$$$$ooooooooooooo    ....",
"    ooooooooooooooooO@++++++++++++X$$$$%#$$ooooooooooooo    ....",
"    oooooooooooooooO@++++++++++++@X$$&&*=$$ooooooooooooo    ....",
"    ooooooooooooooO+++++++++++++@X#$$%**=$$ooooooooooooo    ....",
"                 O@@+++++++++++@X#$$%%%*=$$$                ....",
"                O@@@@+++++++++@X##$$$$%%$$%&&               ....",
"                 O@@@@+++++++++@O##$$$$$$$$$#               ....",
"                  O@@@@@++++++++@O##$$$$$$$$#               ....",
"-------------------OO@@@@++++++++@O##$$$$$$#----------------....",
"---------------------OO@@@@@++++++@O##$$$$#-----------------....",
"-----------------------OO@@@@@@@@@@@OO###-------------------....",
"-------------------------OOOOOOOOOOOOOO---------------------....",
"                            O@@@@@@O;::                     ....",
"                           O@@@@@@@O;:>,                    ....",
"                           O@@@@@@@O&;:>,                   ....",
"                          O@@@@@+@@O&&;:>                   ....",
"    oooooooooooooooooooo  O@@@+@++@O&&&;;ooooooooooooooo    ....",
"    oooooooooooooooooooo O@@+++@++@O&#$#oooooooooooooooo    ....",
"    oooooooooooooooooooo O+@++@+++@O##$#oooooooooooooooo    ....",
"    ooooooooooooooooooooO+++++@+++O&#$%#oooooooooooooooo    ....",
"    ooooooooooooooooooooO+++++++++O&$$%%oooooooooooooooo    ....",
"    oooooooooooooooooooO++++++@+++O&#$$%%ooooooooooooooo    ....",
"    oooooo%%%ooooooooooO++++++++++O&&#$$%ooooooooooooooo    ....",
"    ooooo%$$$%ooooooooO+++++++++++O&&##$%%oooooooooooooo    ....",
"    ooooo$$$$$oooooooO++++++++++++O&$&#$$#oooooooooooooo    ....",
"    oooooo$$$$%oooooO+++++++++++++O#$$&#$#oooooooooooooo    ....",
"    oooooooo#$$ooooO++++++++++++++O#$$#&$&oooooooooooooo    ....",
"    oooooooo##$oooO+++++++++++++++O#$$#&&ooooooooooooooo    ....",
"    oooooooo###ooO++++@+++++++++++O#$$#ooooooooooooooooo    ....",
"    oooooooo&&#oO++++++++++@++@+++O#$$#ooooooooooooooooo    ....",
"    ooooooooo&&&O++++@+++++++++++++O$$#ooooooooooooooooo    ....",
"    ooooooooo&&&O@++@+++++@+++@++++O$$#ooooooooooooooooo    ....",
"    oooooooooo&&&O@@++++++@+++@++++O$$#ooooooooooooooooo    ....",
"    ooooooooooooooO@@++++@+++@+++++O$$#ooooooooooooooooo    ....",
"    oooooooooooooooOO@@@@@@++@+++++@##&ooooooooooooooooo    ....",
"    oooooooooooooooooOOOOO@@@@@+++@@#&&&oooooooooooooooo    ....",
"                         &OOOO@@@@@@&&&#$$                  ....",
"                          &&&&OOOOOO &##$$                  ....",
"                           ###&.      ###                   ....",
"                            ....                            ....",
"----------------------------....----------------------------....",
"----------------------------....----------------------------....",
"----------------------------....----------------------------....",
"----------------------------....----------------------------...."
};
