/* XPM */
static char *result[] = {
/* columns rows colors chars-per-pixel */
"64 64 14 1 ",
"  c #2F262A",
". c #0A090D",
"X c #6A45A5",
"o c #170F24",
"O c #251F22",
"+ c #3A2F5A",
"@ c #2A1B41",
"# c #121014",
"$ c #3C5C71",
"% c #FDFFD6",
"& c #FAFFA5",
"* c #B5A75A",
"= c #625613",
"- c white",
/* pixels */
"                            ....                            ....",
"                            ....                            ....",
"                   X        ....              X             ....",
"                  oXX       ....             XXo            ....",
"    OOOOOOOOOOOOOOo+XXOO    ....    OOOOOOOOXX+oOOOOOOOO    ....",
"    OOOOOOOOOOOOOo+++XXO    ....    OOOOOOOXX+++oOOOOOOO    ....",
"    OOOOOOOOOOOOOo+++XXX    ....    OOOOOOXXX+++oOOOOOOO    ....",
"    OOOOOOOOOOOOOo++++XXX   ....    OOOOOXXX++++oOOOOOOO    ....",
"    OOOOOOOOOOOOo@+++++XXX  ....    OOOOXXX+++++@oOOOOOO    ....",
"    OOOOOOOOOOOOo@++++++XXXXXXXXXXXXXXXXXX++++++@oOOOOOO    ....",
"    OOOOOOOOOOOOo@++++++++XXXXXXXXXXXXXX++++++++@oOOOOOO    ....",
"    OOOOOOOOOOOOo@++++++++++++++++++++++++++++++@oOOOOOO    ....",
"    OOOOOOOOOOOOo@++++++++++++++++++++++++++++++@oOOOOOO    ....",
"    OOOOOOOOOOOOo@@+++@@+++++++++++++++++++@@+++@oOOOOOO    ....",
"    OOOOOOOOOOOOo@@@@@@+++++++++++++++++++++@@@@@oOOOOOO    ....",
"    OOOOOOOOOOOOo@@@@++++++++++++++++++++++++@@@@oOOOOOO    ....",
"    OOOOOOOOOOOOOo@@++++++++++++++++++++++++++@@oOOOOOOO    ....",
"    OOOOOOOOOOOOOoo++++++++++++++++++++++++++++@@OOOOOOO    ....",
"    OOOOOOOOOOOOOo++++++++++++++++++++++++++++++oOOOOOOO    ....",
"    OOOOOOOOOOOOo++++++++++++++++++++++++++++++++oOOOOOO    ....",
"    OOOOOOOOOOOOo++++++++++++++++++++++++++++++++oOOOOOO    ....",
"    OOOOOOOOOOOo@+++++++++++++++++++++++++++++++++oOOOOO    ....",
"    OOOOOOOOOOo@@@++++++++++++++++++++++++++++++@@@oOOOO    ....",
"    OOOOOOOOOo@@@@@+++++++++++++++++++++++++++@@@@@@oOOO    ....",
"            o@@@@@@@@++++++++++++++++++++++@@@@@@@@@@o      ....",
"             oo@@@@@@@@@@++++++++++++++@@@@@@@@@@@@oo       ....",
"               oo@@@@@@@@@@@@@@@@@@@@@@@@@@@@@@@@oo         ....",
"                 oo@@@@@@@@@@@@@@@@@@@@@@@@@@@@oo           ....",
"###################ooooo@@@@@@@@@@@@@@@@@@ooooo#############....",
"########################ooo@@@@@@@@@@@@ooo##################....",
"###########################oooooooooooo#####################....",
"##########################o@$$$$$$$$$$@o####################....",
"                         o@@@@$$$$$$@@@@o                   ....",
"                        o@@@@@@@@@@@@@@@@o                  ....",
"                       o@@@@@@@@@@@@@@@@@@o                 ....",
"                       o@@@@@@@@@@@@@@@@@@o                 ....",
"    OOOOOOOOOOOOOOOOOOo++++@@@@@@@@@@@@@+++oOOOOOOOOOOOO    ....",
"    OOOOOOOOOOOOOOOOOOo+++++++@@@@@@+++++++oOOOOOOOOOOOO    ....",
"    OOOOOOOOOOOOOOOOOo++++++++++++++++++++++oOOOOOOOOOOO    ....",
"    OOOOOOOOOOOOOOOOOo++++++++++++++++++++++oOOOOOOOOOOO    ....",
"    OOOOOOOOOOOOOOOOo++++++++++++++++++++++++oOOOOOOOOOO    ....",
"    OOOOOOOOOOOOOOOOo+++++++++++++++%%+++++++oOOOOOOOOOO    ....",
"    OOOOOOOOOOOOOOOOo++++++++++++++%&&%++++++oOOOOOOOOOO    ....",
"    OOOOOOOOOOOOOOOo@++++++++++++++*&&&%+++++@oOOOOOOOOO    ....",
"    OOOOOOOOOOOOOOOo@+++++++++++++++*&&&+++++@oOOOOOOOOO    ....",
"    OOOOOOOOOOOOOOo@@++++++++++++++++&&&+++++@@oOOOOOOOO    ....",
"    OOOOOOOOOOOOOo@@+++++++++++++++++&&&++++++@@oOOOOOOO    ....",
"    OOOOOOOOOOOOo@+++++++++++++++++++&&&+++++++@@oOOOOOO    ....",
"    OOOOOOOOOOOo+++++++++++++++++++++&&&++@++++++@oOOOOO    ....",
"    OOOOOOOOOoo++++++++++++@+++++++++*&&+++++++++++ooOOO    ....",
"    OOOOOOOoo+++++++++++++++++++++++****+++++++++++++ooO    ....",
"    OOOOOOo+++++++++++@+++@++++++@@@****++++@++++++++++o    ....",
"    OOOOOo++++@++++++@++++++++++@oo****+++++++++@+++++++o   ....",
"    OOOOOOoo@@+++++++++++@@++++@o=****@@+++++@+++@++++oo    ....",
"    OOOOOOOOoo@@+++@++++@@++@@@o==***=@o@@++++@+++@@ooOO    ....",
"    OOOOOOOOOOoo@@@@@@@@@@@@ooo=******=oo@@@@@@@@@ooOOOO    ....",
"                ooo@@@@@@ooo===******===o+@@@@@ooo          ....",
"                   oooooo================oooooo             ....",
"                          =***=.  =======                   ....",
"                           ===..   =***=                    ....",
"############################....###=&&&=####################....",
"############################....####===#####################....",
"############################....############################....",
"############################....############################...."
};
