/* XPM */
static char *result[] = {
/* columns rows colors chars-per-pixel */
"64 64 244 2 ",
"   c #2F262A",
".  c #251023",
"X  c #0A090D",
"o  c #774145",
"O  c #A48669",
"+  c #BFAB84",
"@  c #AB966D",
"#  c #AD9C6F",
"$  c #C3B386",
"%  c #C2B386",
"&  c #C3B487",
"*  c #C1B386",
"=  c #C0B186",
"-  c #C0B085",
";  c #A7966C",
":  c #A7956C",
">  c #AC996F",
",  c #BEAE84",
"<  c #AD9B6F",
"1  c #AB996E",
"2  c #AA956D",
"3  c #C0AC84",
"4  c #B99B7E",
"5  c #805A4F",
"6  c #502222",
"7  c #502323",
"8  c #512323",
"9  c #9C7360",
"0  c #9D7360",
"q  c #906959",
"w  c #916959",
"e  c #916A5A",
"r  c #926A5A",
"t  c #926B5A",
"y  c #936C5B",
"u  c #946D5B",
"i  c #956D5C",
"p  c #966D5C",
"a  c #976E5D",
"s  c #A37964",
"d  c #9F8165",
"f  c #785349",
"g  c #633934",
"h  c #9C715E",
"j  c #8C6052",
"k  c #936757",
"l  c #7C5146",
"z  c #775247",
"x  c #512424",
"c  c #5B302D",
"v  c #8F6555",
"b  c #7F554A",
"n  c #7E564A",
"m  c #7E554A",
"M  c #7D554A",
"N  c #80584C",
"B  c #7C5448",
"V  c #7A574B",
"C  c #5B2D33",
"Z  c #6D423B",
"A  c #6B423B",
"S  c #6C423C",
"D  c #6C433C",
"F  c #6C433D",
"G  c #6C443C",
"H  c #6D443D",
"J  c #6D443E",
"K  c #70463F",
"L  c #5B2C37",
"P  c #795349",
"I  c #7B554B",
"U  c #50232B",
"Y  c #5C2E34",
"T  c #5C2D33",
"R  c #5D2E34",
"E  c #5C2D31",
"W  c #5C2E33",
"Q  c #5E3031",
"!  c #7D594D",
"~  c #613532",
"^  c #512431",
"/  c #502335",
"(  c #502333",
")  c #502334",
"_  c #251F22",
"`  c #765046",
"'  c #7D5A4E",
"]  c #653A35",
"[  c #603431",
"{  c #5F3330",
"}  c #6C3C39",
"|  c #82514B",
" . c #988964",
".. c #5E322F",
"X. c #75423F",
"o. c #9C8B67",
"O. c #804947",
"+. c #8B5B53",
"@. c #8E745E",
"#. c #8D6F5D",
"$. c #643934",
"%. c #623833",
"&. c #643A35",
"*. c #805C50",
"=. c #7B5449",
"-. c #7A5147",
";. c #795247",
":. c #795147",
">. c #785147",
",. c #785046",
"<. c #80574B",
"1. c #764E45",
"2. c #845F52",
"3. c #855F52",
"4. c #8D755C",
"5. c #774F46",
"6. c #B9B57B",
"7. c #B8BB7B",
"8. c #B9B17B",
"9. c #B08A76",
"0. c #BBAE7E",
"q. c #835E51",
"w. c #876957",
"e. c #5C2D39",
"r. c #B9BB7B",
"t. c #B49A7B",
"y. c #BAB17C",
"u. c #8B735C",
"i. c #7C564A",
"p. c #B6A77A",
"a. c #BAB87B",
"s. c #BAB97B",
"d. c #B5A679",
"f. c #B7A67C",
"g. c #B7AE7B",
"h. c #B8AD7B",
"j. c #8D6257",
"k. c #866A57",
"l. c #121014",
"z. c #7A5248",
"x. c #876154",
"c. c #785047",
"v. c #836053",
"b. c #8B6256",
"n. c #B8BC7B",
"m. c #AF9178",
"M. c #B7BC7B",
"N. c #876054",
"B. c #BAB77B",
"V. c #BAB57B",
"C. c #7A554B",
"Z. c #B9B27B",
"A. c #BABC7C",
"S. c #B6BB7B",
"D. c #BBBA7B",
"F. c #825D50",
"G. c #866053",
"H. c #B8B67A",
"J. c #B9B77A",
"K. c #BABA7B",
"L. c #BBB97B",
"P. c #BAB67B",
"I. c #845E51",
"U. c #835E52",
"Y. c #866155",
"T. c #B9B67A",
"R. c #B8AF7B",
"E. c #B8B07B",
"W. c #BABB7B",
"Q. c #B9B37B",
"!. c #815C4F",
"~. c #7B564B",
"^. c #7B564C",
"/. c #886054",
"(. c #875F53",
"). c #B8BA7A",
"_. c #BCBB7C",
"`. c #B9BC7C",
"'. c #51243A",
"]. c #835F52",
"[. c #80584D",
"{. c #7B534A",
"}. c #582E2A",
"|. c #512335",
" X c #552736",
".X c #7B544A",
"XX c #886154",
"oX c #7C5449",
"OX c #974A3F",
"+X c #512423",
"@X c #5A2E2B",
"#X c #522428",
"$X c #592B35",
"%X c #7C554B",
"&X c #825C4F",
"*X c #794F46",
"=X c #974C41",
"-X c #532625",
";X c #8C3D34",
":X c #522524",
">X c #592C2B",
",X c #552927",
"<X c #795248",
"1X c #7A544A",
"2X c #7A5348",
"3X c #795148",
"4X c #775046",
"5X c #7A5349",
"6X c #7E564B",
"7X c #7F584C",
"8X c #843530",
"9X c #522625",
"0X c #724B42",
"qX c #724941",
"wX c #724A42",
"eX c #A88E72",
"rX c #905B55",
"tX c #A07165",
"yX c #9E816B",
"uX c #9C7264",
"iX c #8C6658",
"pX c #704840",
"aX c #8C745C",
"sX c #6F473F",
"dX c #714941",
"fX c #552A28",
"gX c #772624",
"hX c #552833",
"jX c #79282E",
"kX c #853137",
"lX c #8A3937",
"zX c #79282D",
"xX c #79292D",
"cX c #9B4F46",
"vX c #7A2A2C",
"bX c #822F32",
"nX c #7B2A2A",
"mX c #7B2A2B",
"MX c #8A3537",
"NX c #7A2A2B",
"BX c #7B2A2C",
"VX c #78282B",
"CX c #772629",
"ZX c white",
/* pixels */
"        . . . . . . . . . . . . . . . . . . . . . . . . . . . . . . . . . . . . . . . . . . . . . . . . . . .           X X X X ",
"        . . . . . . . . . . . . . . . . . . . . . . . . . . . . . . . . . . . . . . . . . . . . . . . . . . .           X X X X ",
"    . . o o O O O + + @ @ # # $ $ % % & & * * & & & = = & & - - # # ; ; # # : : : > > , , < < 1 1 2 2 3 3 4 4 . . .     X X X X ",
"    . . o o O O O + + @ @ # # $ $ % % & & * * & & & = = & & - - # # ; ; # # : : : > > , , < < 1 1 2 2 3 3 4 4 . . .     X X X X ",
"    . . 5 5 6 6 6 7 7 8 8 9 9 0 0 q q q q q q q q q q q q q w w e e r r t t y y y u u i i p p a a 0 0 s s s s d d d . . X X X X ",
"    . . 5 5 6 6 6 7 7 8 8 9 9 0 0 q q q q q q q q q q q q q w w e e r r t t y y y u u i i p p a a 0 0 s s s s d d d . . X X X X ",
". . f f 7 7 g g g g g g g 8 8 h h j j j j j j j j j j j j j j j j j j j j j j j j j j j j j j j j j j j j k k l l l . . X X X X ",
". . f f 7 7 g g g g g g g 8 8 h h j j j j j j j j j j j j j j j j j j j j j j j j j j j j j j j j j j j j k k l l l . . X X X X ",
". . z z x x c c c 8 8 g g 8 8 v v b b b b b b n n n n n m m M M M M M M M M M M M M M M M M M m m m m m m N N B B B . . X X X X ",
". . z z x x c c c 8 8 g g 8 8 v v b b b b b b n n n n n m m M M M M M M M M M M M M M M M M M m m m m m m N N B B B . . X X X X ",
". . V V 7 7 C C C 8 8 8 8 Z Z A A A A A A A A A A A A A S S S S D D D D F F D D D D D G G D D D D H H J J K K L L L . . X X X X ",
". . V V 7 7 C C C 8 8 8 8 Z Z A A A A A A A A A A A A A S S S S D D D D F F D D D D D G G D D D D H H J J K K L L L . . X X X X ",
". . P P I I U U U Y Y C C T T R R R R E E T T T T T T T E E E E W W R R R R W W W R R Y Y Y Y Y Y T T T T Q Q . . .     X X X X ",
". . P P I I U U U Y Y C C T T R R R R E E T T T T T T T E E E E W W R R R R W W W R R Y Y Y Y Y Y T T T T Q Q . . .     X X X X ",
"    . . ! ! ~ ~ ~ ^ ^ / / ( ( ( ( ) ) ) ) ) ) ) ) ) ) ) ) ) ) ) ) ) ) ) ) ) ) ) ) ) ) ) ) ) ) ) ) ) ) ) ) . . _         X X X X ",
"    . . ! ! ~ ~ ~ ^ ^ / / ( ( ( ( ) ) ) ) ) ) ) ) ) ) ) ) ) ) ) ) ) ) ) ) ) ) ) ) ) ) ) ) ) ) ) ) ) ) ) ) . . _         X X X X ",
"    . . ` ` ' ' ' D D ] ] [ [ { { } } | |  . ...............X.X.o.o.O.O.+.+.@.@.@.#.#.$.$.%.%.$.$.&.&.. . _ _ _         X X X X ",
"    . . ` ` ' ' ' D D ] ] [ [ { { } } | |  . ...............X.X.o.o.O.O.+.+.@.@.@.#.#.$.$.%.%.$.$.&.&.. . _ _ _         X X X X ",
"    . . D D *.*.*.=.=.-.-.;.;.:.:.;.;.;.;.;.;.;.;.;.:.:.:.:.:.:.>.>.>.>.,.,.,.,.,.,.,.,.,.:.:.-.-.<.<.. . _ _ _         X X X X ",
"    . . D D *.*.*.=.=.-.-.;.;.:.:.;.;.;.;.;.;.;.;.;.:.:.:.:.:.:.>.>.>.>.,.,.,.,.,.,.,.,.,.:.:.-.-.<.<.. . _ _ _         X X X X ",
"        . . 1.1.1.2.2.3.3.3.3.3.3.3.3.3.3.3.3.3.3.3.3.3.3.3.3.3.3.3.3.3.3.3.3.3.3.3.3.3.3.3.3.2.2.4.4.. . _ _ _         X X X X ",
"        . . 1.1.1.2.2.3.3.3.3.3.3.3.3.3.3.3.3.3.3.3.3.3.3.3.3.3.3.3.3.3.3.3.3.3.3.3.3.3.3.3.3.2.2.4.4.. . _ _ _         X X X X ",
"        . . 5.5.5.2.2.2.2.2.2.2.2.6.6.7.7.7.7.2.2.2.2.2.2.2.8.8.2.2.9.9.2.2.2.2.2.0.0.2.2.2.2.2.2.q.q.w.w.. . _         X X X X ",
"        . . 5.5.5.2.2.2.2.2.2.2.2.6.6.7.7.7.7.2.2.2.2.2.2.2.8.8.2.2.9.9.2.2.2.2.2.0.0.2.2.2.2.2.2.q.q.w.w.. . _         X X X X ",
"        . . e.e.e.2.2.2.2.2.2.2.2.2.2.2.2.2.2.2.2.2.2.2.2.2.r.r.2.2.t.t.2.2.2.2.2.y.y.2.2.2.2.3.3.3.3.u.u.. .           X X X X ",
"        . . e.e.e.2.2.2.2.2.2.2.2.2.2.2.2.2.2.2.2.2.2.2.2.2.r.r.2.2.t.t.2.2.2.2.2.y.y.2.2.2.2.3.3.3.3.u.u.. .           X X X X ",
"            . . . i.i.2.2.2.2.2.2.p.p.r.r.7.7.a.a.a.2.2.2.2.s.s.d.d.f.f.2.2.2.2.2.g.g.h.h.h.h.j.j.3.3.k.k.. .           X X X X ",
"            . . . i.i.2.2.2.2.2.2.p.p.r.r.7.7.a.a.a.2.2.2.2.s.s.d.d.f.f.2.2.2.2.2.g.g.h.h.h.h.j.j.3.3.k.k.. .           X X X X ",
"l.l.l.l.l.l.. . . z.z.2.2.2.2.2.2.2.2.2.2.2.2.2.2.2.2.2.2.2.2.2.2.2.2.2.2.2.2.2.2.2.2.2.2.2.2.2.2.3.3.3.3.x.x.. . . l.l.X X X X ",
"l.l.l.l.l.l.. . . z.z.2.2.2.2.2.2.2.2.2.2.2.2.2.2.2.2.2.2.2.2.2.2.2.2.2.2.2.2.2.2.2.2.2.2.2.2.2.2.3.3.3.3.x.x.. . . l.l.X X X X ",
"l.l.l.l.l.l.. . . c.c.2.2.v.v.v.v.2.2.2.2.2.2.2.2.2.2.2.2.2.2.2.2.2.2.2.2.2.2.2.2.q.q.2.2.2.2.2.2.2.2.3.3.2.2.. . . l.l.X X X X ",
"l.l.l.l.l.l.. . . c.c.2.2.v.v.v.v.2.2.2.2.2.2.2.2.2.2.2.2.2.2.2.2.2.2.2.2.2.2.2.2.q.q.2.2.2.2.2.2.2.2.3.3.2.2.. . . l.l.X X X X ",
"                  . . >.>.v.v.v.v.b.b.n.n.7.7.m.m.m.2.2.2.2.2.2.r.r.M.M.2.2.q.q.q.N.N.B.B.V.V.6.6.2.2.2.2.2.2.. . .     X X X X ",
"                  . . >.>.v.v.v.v.b.b.n.n.7.7.m.m.m.2.2.2.2.2.2.r.r.M.M.2.2.q.q.q.N.N.B.B.V.V.6.6.2.2.2.2.2.2.. . .     X X X X ",
"                  . . C.C.2.2.q.q.q.q.M.M.2.2.2.2.2.Z.Z.2.2.2.2.A.A.M.M.A.A.q.q.q.q.q.s.s.2.2.2.2.Z.Z.2.2.2.2.q.q.q.. . X X X X ",
"                  . . C.C.2.2.q.q.q.q.M.M.2.2.2.2.2.Z.Z.2.2.2.2.A.A.M.M.A.A.q.q.q.q.q.s.s.2.2.2.2.Z.Z.2.2.2.2.q.q.q.. . X X X X ",
"        _ _ _ _ _ . . V V 2.2.q.q.q.q.S.S.v.v.2.2.2.Z.Z.2.2.2.2.D.D.2.2.2.2.q.q.q.q.q.s.s.2.2.2.2.Z.Z.2.2.F.F.G.G.G.. . X X X X ",
"        _ _ _ _ _ . . V V 2.2.q.q.q.q.S.S.v.v.2.2.2.Z.Z.2.2.2.2.D.D.2.2.2.2.q.q.q.q.q.s.s.2.2.2.2.Z.Z.2.2.F.F.G.G.G.. . X X X X ",
"        _ _ _ _ _ . . f f 2.2.q.q.q.q.H.H.J.J.K.K.K.L.L.2.2.2.2.P.P.2.2.2.2.F.F.F.2.2.r.r.r.r.s.s.P.P.2.2.2.2.I.I.I.. . X X X X ",
"        _ _ _ _ _ . . f f 2.2.q.q.q.q.H.H.J.J.K.K.K.L.L.2.2.2.2.P.P.2.2.2.2.F.F.F.2.2.r.r.r.r.s.s.P.P.2.2.2.2.I.I.I.. . X X X X ",
"        _ _ _ _ _ _ _ . . 5 5 v.v.U.U.Y.Y.T.T.s.s.s.T.T.2.2.2.2.h.h.R.R.E.E.q.q.q.2.2.K.K.W.W.W.W.Q.Q.2.2.2.2.q.q.q.!.!.. . X X ",
"        _ _ _ _ _ _ _ . . 5 5 v.v.U.U.Y.Y.T.T.s.s.s.T.T.2.2.2.2.h.h.R.R.E.E.q.q.q.2.2.K.K.W.W.W.W.Q.Q.2.2.2.2.q.q.q.!.!.. . X X ",
"        _ _ _ _ _ _ _ . . ~.~.v.v.v.v.v.v.v.v.v.v.v.v.v.2.2.2.2.2.2.2.2.2.2.2.2.2.2.2.2.2.2.2.2.2.2.2.2.2.2.2.2.2.2.q.q.. . X X ",
"        _ _ _ _ _ _ _ . . ~.~.v.v.v.v.v.v.v.v.v.v.v.v.v.2.2.2.2.2.2.2.2.2.2.2.2.2.2.2.2.2.2.2.2.2.2.2.2.2.2.2.2.2.2.q.q.. . X X ",
"        _ _ _ _ _ _ _ . . ^.^.v.v.v.v.v.v.v.v.U.U.U.U.U.q.q.2.2.2.2.2.2.2.2.2.2.2.2.2.q.q././.q.q.q.q.(.(.q.q.q.q.q.q.q.. . X X ",
"        _ _ _ _ _ _ _ . . ^.^.v.v.v.v.v.v.v.v.U.U.U.U.U.q.q.2.2.2.2.2.2.2.2.2.2.2.2.2.q.q././.q.q.q.q.(.(.q.q.q.q.q.q.q.. . X X ",
"        _ _ _ _ _ _ _ _ _ . . C.C.v.v.v.v.v.v.6.6.6.r.r.7.7.).).2.2.2.2._._.`.`.`.`.`.q.q.q.q.h.h././.2.2.a.a.2.2.2.q.q.!.!.. . ",
"        _ _ _ _ _ _ _ _ _ . . C.C.v.v.v.v.v.v.6.6.6.r.r.7.7.).).2.2.2.2._._.`.`.`.`.`.q.q.q.q.h.h././.2.2.a.a.2.2.2.q.q.!.!.. . ",
"        . . . . . . . . . '.'.^.^.v.v.q.q.].].v.v.v.v.v.8.8.q.q.q.q.2.2.2.2.s.s.s.2.2.q.q.2.2.2.2.2.2.Q.Q.a.a.2.2.2.q.q.q.q.. . ",
"        . . . . . . . . . '.'.^.^.v.v.q.q.].].v.v.v.v.v.8.8.q.q.q.q.2.2.2.2.s.s.s.2.2.q.q.2.2.2.2.2.2.Q.Q.a.a.2.2.2.q.q.q.q.. . ",
"    . . [.[.{.{.{.}.}.|.|. X X.X.Xv.v.q.q.XXXXa.a.a.B.B.B.B.q.q.2.2.B.B.B.B.B.B.B.q.q.2.2.2.2.s.s.D.D.s.s.B.B.2.2.2.q.q.oXoX. . ",
"    . . [.[.{.{.{.}.}.|.|. X X.X.Xv.v.q.q.XXXXa.a.a.B.B.B.B.q.q.2.2.B.B.B.B.B.B.B.q.q.2.2.2.2.s.s.D.D.s.s.B.B.2.2.2.q.q.oXoX. . ",
". . OXOX+X+X@X@X@X.X.X#X#X$X$X%X%X2.2.q.q.U.U.2.2.2.2.2.2.2.2.2.q.q.F.F.F.F.2.2.2.F.F.2.2.2.2.q.q././.q.q.q.q.2.2.2.&X&X*X*X. . ",
". . OXOX+X+X@X@X@X.X.X#X#X$X$X%X%X2.2.q.q.U.U.2.2.2.2.2.2.2.2.2.q.q.F.F.F.F.2.2.2.F.F.2.2.2.2.q.q././.q.q.q.q.2.2.2.&X&X*X*X. . ",
". . =X=X+X+X.X.X.X.X.X#X#X-X-X&X&X&X&X&X&X&X&X&X&X&X&X&X&X&X&X&X&X&X&X&X&X&X&X&X&X&X&X&X&X&X&X&X&X&X&X&X&X&X&X&X&X&X&X&X&X&X. . ",
". . =X=X+X+X.X.X.X.X.X#X#X-X-X&X&X&X&X&X&X&X&X&X&X&X&X&X&X&X&X&X&X&X&X&X&X&X&X&X&X&X&X&X&X&X&X&X&X&X&X&X&X&X&X&X&X&X&X&X&X&X. . ",
". . ;X;X:X:X>X>X>X6 6 ,X,X<X<X1X1X2X2X<X<X<X<X<X<X<X3X3X:.:.>.>.:.:.:.:.:.:.:.:.:.:.:.4X4X:.:.:.:.<X<X<X<X5X5X6X6X6X7X7X{ { . . ",
". . ;X;X:X:X>X>X>X6 6 ,X,X<X<X1X1X2X2X<X<X<X<X<X<X<X3X3X:.:.>.>.:.:.:.:.:.:.:.:.:.:.:.4X4X:.:.:.:.<X<X<X<X5X5X6X6X6X7X7X{ { . . ",
". . 8X8X[ [ 9X9X9XH H 0X0XqXqXwXwXeXeXrXrXtXtXyXyXyXuXuXqXqXqXqXiXiX0X0X0X0Xu.u.u.0X0X0X0XpXpXaXaXpXpXK K sXsXdXdXdXfXfXgXgX. . ",
". . 8X8X[ [ 9X9X9XH H 0X0XqXqXwXwXeXeXrXrXtXtXyXyXyXuXuXqXqXqXqXiXiX0X0X0X0Xu.u.u.0X0X0X0XpXpXaXaXpXpXK K sXsXdXdXdXfXfXgXgX. . ",
". . hXhXjXjXjXjXjXjXjXjXjXjXjXkXkXjXjXjXjXjXjXlXlXlXzXzXxXxXcXcXvXvXvXvXbXbXvXvXvXnXnXmXmXMXMXNXNXvXvXBXBXvXvXVXVXVXCXCX. . X X ",
". . hXhXjXjXjXjXjXjXjXjXjXjXjXkXkXjXjXjXjXjXjXlXlXlXzXzXxXxXcXcXvXvXvXvXbXbXvXvXvXnXnXmXmXMXMXNXNXvXvXBXBXvXvXVXVXVXCXCX. . X X ",
"l.l.. . . . . . . . . . . . . . . . . . . . . . . . . . . . . . . . . . . . . . . . . . . . . . . . . . . . . . . . . . X X X X ",
"l.l.. . . . . . . . . . . . . . . . . . . . . . . . . . . . . . . . . . . . . . . . . . . . . . . . . . . . . . . . . . X X X X "
};
