/* XPM */
static char *result[] = {
/* columns rows colors chars-per-pixel */
"64 64 5 1 ",
"  c #2F262A",
". c #0A090D",
"X c #251F22",
"o c #121014",
"O c white",
/* pixels */
"                            ....                            ....",
"                            ....                            ....",
"                            ....                            ....",
"                            ....                            ....",
"    XXXXXXXXXXXXXXXXXXXX    ....    XXXXXXXXXXXXXXXXXXXX    ....",
"    XXXXXXXXXXXXXXXXXXXX    ....    XXXXXXXXXXXXXXXXXXXX    ....",
"    XXXXXXXXXXXXXXXXXXXX    ....    XXXXXXXXXXXXXXXXXXXX    ....",
"    XXXXXXXXXXXXXXXXXXXX    ....    XXXXXXXXXXXXXXXXXXXX    ....",
"    XXXXXXXXXXXXXXXXXXXX    ....    XXXXXXXXXXXXXXXXXXXX    ....",
"    XXXXXXXXXXXXXXXXXXXX    ....    XXXXXXXXXXXXXXXXXXXX    ....",
"    XXXXXXXXXXXXXXXXXXXX    ....    XXXXXXXXXXXXXXXXXXXX    ....",
"    XXXXXXXXXXXXXXXXXXXX    ....    XXXXXXXXXXXXXXXXXXXX    ....",
"    XXXXXXXXXXXXXXXXXXXX    ....    XXXXXXXXXXXXXXXXXXXX    ....",
"    XXXXXXXXXXXXXXXXXXXX    ....    XXXXXXXXXXXXXXXXXXXX    ....",
"    XXXXXXXXXXXXXXXXXXXX    ....    XXXXXXXXXXXXXXXXXXXX    ....",
"    XXXXXXXXXXXXXXXXXXXX    ....    XXXXXXXXXXXXXXXXXXXX    ....",
"    XXXXXXXXXXXXXXXXXXXX    ....    XXXXXXXXXXXXXXXXXXXX    ....",
"    XXXXXXXXXXXXXXXXXXXX    ....    XXXXXXXXXXXXXXXXXXXX    ....",
"    XXXXXXXXXXXXXXXXXXXX    ....    XXXXXXXXXXXXXXXXXXXX    ....",
"    XXXXXXXXXXXXXXXXXXXX    ....    XXXXXXXXXXXXXXXXXXXX    ....",
"    XXXXXXXXXXXXXXXXXXXX    ....    XXXXXXXXXXXXXXXXXXXX    ....",
"    XXXXXXXXXXXXXXXXXXXX    ....    XXXXXXXXXXXXXXXXXXXX    ....",
"    XXXXXXXXXXXXXXXXXXXX    ....    XXXXXXXXXXXXXXXXXXXX    ....",
"    XXXXXXXXXXXXXXXXXXXX    ....    XXXXXXXXXXXXXXXXXXXX    ....",
"                            ....                            ....",
"                            ....                            ....",
"                            ....                            ....",
"                            ....                            ....",
"oooooooooooooooooooooooooooo....oooooooooooooooooooooooooooo....",
"oooooooooooooooooooooooooooo....oooooooooooooooooooooooooooo....",
"oooooooooooooooooooooooooooo....oooooooooooooooooooooooooooo....",
"oooooooooooooooooooooooooooo....oooooooooooooooooooooooooooo....",
"                            ....                            ....",
"                            ....                            ....",
"                            ....                            ....",
"                            ....                            ....",
"    XXXXXXXXXXXXXXXXXXXX    ....    XXXXXXXXXXXXXXXXXXXX    ....",
"    XXXXXXXXXXXXXXXXXXXX    ....    XXXXXXXXXXXXXXXXXXXX    ....",
"    XXXXXXXXXXXXXXXXXXXX    ....    XXXXXXXXXXXXXXXXXXXX    ....",
"    XXXXXXXXXXXXXXXXXXXX    ....    XXXXXXXXXXXXXXXXXXXX    ....",
"    XXXXXXXXXXXXXXXXXXXX    ....    XXXXXXXXXXXXXXXXXXXX    ....",
"    XXXXXXXXXXXXXXXXXXXX    ....    XXXXXXXXXXXXXXXXXXXX    ....",
"    XXXXXXXXXXXXXXXXXXXX    ....    XXXXXXXXXXXXXXXXXXXX    ....",
"    XXXXXXXXXXXXXXXXXXXX    ....    XXXXXXXXXXXXXXXXXXXX    ....",
"    XXXXXXXXXXXXXXXXXXXX    ....    XXXXXXXXXXXXXXXXXXXX    ....",
"    XXXXXXXXXXXXXXXXXXXX    ....    XXXXXXXXXXXXXXXXXXXX    ....",
"    XXXXXXXXXXXXXXXXXXXX    ....    XXXXXXXXXXXXXXXXXXXX    ....",
"    XXXXXXXXXXXXXXXXXXXX    ....    XXXXXXXXXXXXXXXXXXXX    ....",
"    XXXXXXXXXXXXXXXXXXXX    ....    XXXXXXXXXXXXXXXXXXXX    ....",
"    XXXXXXXXXXXXXXXXXXXX    ....    XXXXXXXXXXXXXXXXXXXX    ....",
"    XXXXXXXXXXXXXXXXXXXX    ....    XXXXXXXXXXXXXXXXXXXX    ....",
"    XXXXXXXXXXXXXXXXXXXX    ....    XXXXXXXXXXXXXXXXXXXX    ....",
"    XXXXXXXXXXXXXXXXXXXX    ....    XXXXXXXXXXXXXXXXXXXX    ....",
"    XXXXXXXXXXXXXXXXXXXX    ....    XXXXXXXXXXXXXXXXXXXX    ....",
"    XXXXXXXXXXXXXXXXXXXX    ....    XXXXXXXXXXXXXXXXXXXX    ....",
"    XXXXXXXXXXXXXXXXXXXX    ....    XXXXXXXXXXXXXXXXXXXX    ....",
"                            ....                            ....",
"                            ....                            ....",
"                            ....                            ....",
"                            ....                            ....",
"oooooooooooooooooooooooooooo....oooooooooooooooooooooooooooo....",
"oooooooooooooooooooooooooooo....oooooooooooooooooooooooooooo....",
"oooooooooooooooooooooooooooo....oooooooooooooooooooooooooooo....",
"oooooooooooooooooooooooooooo....oooooooooooooooooooooooooooo...."
};
